<svg xmlns="http://www.w3.org/2000/svg" viewBox="0 0 198.4 211.7">
  <g style="display:inline">
    <path d="M95 0c-.6 0-1.2.6-1.4 2.2 0 2.6 3.5 7.5-1 8.1C89 9 92.7 4.5 91 2c-2.1-4.1-4.7 1.7-7.3.3-1.7-2.2-4.2-.5-3 1.9 0-3.8 3.3-.5 5.3-.8.8-1.5 3.3-3.5 3.7-.5.9 3.6-4.5 2.3-6.6 3-4.4-.7 1.6 4.7-1.7 5.6-3.8-.4-.6-6.2-3.3-8.4-2.1-3.4-4.1 3.5-6.8.5-.9 1.4-1.5 2-3 1.3-1.2 2.3-3.7 1.5-5.3 3 2.4 1.4-.8 7.2-1.8 3.2-1 1.7 1.7 3.3 1.7 5-1.7 2.7 0 5.4 1.4 7.8 1.5.8 1.8 2.3 1.2 4 2.5 1.8 1.4 5.4 3.1 7.6 8.2 4.2 17.7 4.4 26.6 5.4h.6c9.1.3 18.4-.2 27.3-2 2.5-.8 5.3-1 7.5-2.4 1.2-2.6 1.5-5.6 3.2-7.9-1.6-2.6 1-3.3 2-5.3 3-2.2-.4-5.3 1.7-7.6 2.1-2.2 2.6-5.8-.8-7-2.6-1.5-5.5-2.6-7.9-4-3 1.8-4.4-2.8-7.3-1.3-3.4 1.8.6 6.9-2.3 8.4-2.7-.7-5.5-.6-8.2-1.3-3-4 4-3.5 5.7-1.6.2 2.8.5-.1 1.4-1.2 1.2-1.9 2.5-6.8-1.4-5.6-2.7 2.7-4.6-1.8-7.6-1.1-3.4 2.4 1.2 6.8-1.3 9.3-3.8 1.9-4.3-3.2-2.5-5.4a2.8 2.8 0 0 0-4.5-3C99 2.6 96.6 0 95 0zm.3.8c1.4 0 4 2.5 5.4 2 1.1-3.1 5.8-1.8 4.1 1.5 0 1.7-3.2.2-4.3.7-2.1-.6-7.3 1.4-6.2-2.4 0-1.3.4-1.7 1-1.8zm15.2 1c1 0 3 2.3 4.4 2.1 1.4-2.5 5.1-1.1 3.2 1.6-.2.4-.6.6-1 .7-2.3-.9-7 .5-7.5-2.6 0-1.4.4-1.9.9-1.9zm-1.7.2s.2.5.3 1.7c-.9 4-.7-1.6-.3-1.7zM75.7 3.4c2.5 0 .4 5.1-2.3 4.2-2 1.8-3.6-1.8-2.2-3.1 1.5 1.4 3.3.9 4.2-1l.3-.1zm47.7.4c.7 0 1.6 2.8 2.8 2.6 1.3-2 3.7-1 2.3 1.4v.6c-1.5.2-7.1-.3-5.8-3.4.2-.8.5-1.2.7-1.2zM78 4.1c.3 0 .6.4.6 1.6.1.5-.1 2-.8 1C77 5.3 77.5 4 78 4zm43.6.1c.2 0 .3.4.1 1.7-2 3.1-.6-1.5 0-1.7zm-54.2 2c.8 0 2 3.3-.1 3.6-2.5 2.2-4-4-.5-2.2 0-1 .3-1.4.6-1.4zm2 .5c.5 0 1.4 1.1 1.2 2.4-.3 1.1-1.3-.4-1.4-.8-.3-1.2 0-1.6.2-1.6zm30.5 0c2.1.1 4 .9 3.2 3.1l-.5.1c-2.2-.2-7.3 1.5-7-2.2a9 9 0 0 1 4.3-1zM87.2 7c2.2 0 3.5 3.9.3 3.4l-3.9.5c-2.2-2.3-.1-3.9 2.3-3.5.5-.3 1-.4 1.3-.4zm44.6.1c.5 0 1 .5 1 1.6 1.7-1 2.5.4 1.4 2.2-1.3.5-3.3-.5-3.4-2 0-1 .5-1.7 1-1.8zm-1.7.3c.4 0 .6.5 0 1.7l-.3.3-.2.1c-.9-1.1 0-2.1.5-2.1zM78.3 8.9l.4 1.4c-.7 3-.8-1.6-.4-1.4zm-3.7 0h.5c3.8.3 1 4.9-1.8 3.2-.7 0-1.4.8-2.5.6-1.7 1.7-.6-3.4 1.3-1.8-.1.7 1-2 2.5-2zM62 9c-1 0-2.3.6-1 1.2.5.1.9.3 1.4.2 1-1 .4-1.3-.4-1.4zm59.7.8c.4 0 .6.4.1 1.5l-.2.5a1 1 0 0 1 .1-2zm3 0c1.5 0 3 1 2 2.8-.8 1.3-2.4-.2-3.4-.3-1.4-1.7 0-2.5 1.4-2.5zm-24.2 1c9 0 18 1.2 26.8 3.5 3 1.2 6.8 1.8 8.8 4.6v.2a51 51 0 0 0-20.5-6.3c-8-1.3-16.1-1.1-24.1-1-6.2.6-12.5.9-18.5 2.5a30 30 0 0 0-9.2 3.8c-.7-1.2 3.2-2.6 4.8-3.3a96.6 96.6 0 0 1 31.9-4zm35.2.3c.3 0 4.2-.2 2.5 1.6-.6 1.4-2-1-2.5-1.6zm-67 .5c.5 0 1 .5.6 1.8-.3.6-1 .6-1.4.6-2.2-.8-.5-2.4.7-2.4zm27.5.8c3.3 0-2.7 2.3-2.2 4.6-2.3.4-2.4-3.8-4.6-4.1a31.8 31.8 0 0 1 6.8-.5zm7.8.2c1.3 0 2.7.1 3.5.3 4.6-.1-1.1 2.1-1.3 4-2.3-.1-2-3.6-4.3-4-.1-.3 1-.4 2.1-.3zm27.8 0c.7 0 1.2.5.7 1.8.3 1-.8.7-1.2.5-2.1-1.1-.6-2.4.5-2.3zm-47.7.6c2 0-2.2 2.9-1.6 4.6-2.2 1-2-3.5-4.2-3.4-.6-.9 3.3-1 4.6-1l1.2-.2zm14.4.3c2.2.1 4.7 2.4 4.5 4.6.9 2.5-2.1 1-3.5 1.4-2.9 1.2-5.2-1.2-3.5-4 .4-1.5 1.4-2 2.5-2zm17.3.2c1.2 0 3.3.6 4 .7 4 .4-1.7 1.5-1.6 3.3-1.6 2-1.7-1.9-2.3-2.6-1.3-1-1-1.4 0-1.4zm-51.9.2c.6 0 1.3.8.5 2-.2.5-1 .2-1-.3-.6-1.2 0-1.7.5-1.7zM88 14c1.7 0 3.6 1 3.6 3.2 1.6 1.8-.1 3-2.3 2.7-2.3.8-5.5.2-4.7-3C85 15 86.4 14 88 14zm22.6.2c2 0 4.2 2 3.6 4.5.8 2.2-1.7 2-3 1.6-3 .4-6.4-1-3.5-4.2a3 3 0 0 1 2.9-1.9zm23.4 0c.2 0 .4.3.5 1.2-1.7 1.7-1-1.1-.5-1.2zm-59.9.7c.7 0-1.3 3.4-1.4 4.8-.2-4.2-7.2-2.9-5.7 1 0 2.6-.7-1.7-2.4-1.5 1.4-3.1 6.5-3 9.5-4.3zm62 .2c.2 0 .3.3.1 1.1l-.4.4c-1.3.9-.2-1.6.3-1.5zm-57.9.7c1 0 1.8.6 2.2 2.1 1 1.6 1.1 3.7-1.6 3.3-1.2.3-3.8 1.1-3.3-1.2a3 3 0 0 1 2.7-4.2zm47.2 0c.6 0 1.9.6 2.6.9 2.3.1 8.4 1.8 4.7 4.7 0 .3-.8 1.6-.4.1.8-2.7-2.6-5.6-4.6-2.8-1.6 2.7-1-.3-2-1.5-.9-1-.8-1.4-.3-1.4zm-4.5.8c1.9 0 3.8 2.6 2.2 4.9-.5 1.2-1.9.5-2.7.2-2.4.4-3.3-1.3-1.6-3 .5-1.5 1.3-2.1 2.1-2.1zm-51 1.4c1.2.2 3.5 3.1 2.5 4.6-2.7 2.6-4.5-3.3-2.5-4.6zm58.7 1.5c.8 0 1.5 2 .4 3v.7l-.3.4c-2.5.7-3.4-1.2-1-2.5.2-1.1.6-1.6 1-1.6zm-35.5.8c.3 0 .6.1.8.3-.4.5-1 .5-1.6.7-2.7.5-.7-1 .8-1zm5 0c.6 0 .8.3-.3.8l-1 .2c-3.3 0 0-1 1.3-1zm4.4.2c.4 0 .9 0 1.2.3l-1.2.4c-2.3.3-1.2-.7 0-.7zm4.9.1c.4 0 .9.2 1.1.5-.5.3-1 .2-1.6.3-2.6.3-1-.8.5-.8zm-19.4.1c.9 0 1.4.3-.4.9-.5 0-1 .3-1.6.3-1.1-.7.8-1.1 2-1.2zm-4.2.6c.2 0 .2.1-.4.6l-.8.2c-3 .4.3-.9 1.2-.8zm6.7.6c1.6 0 3 2 .3 1.6h-2c-3.4.7-.8-2 1-1.5l.7-.1zm5.5 0c.5 0 .8.3.5.9a3 3 0 0 1-1.3.6c-2.9 0-.4-1.5.8-1.5zm8.8.2c.6 0 1.3.3 1 1.2-.3.2-.8.3-1.2.2-2.2-.6-1-1.5.2-1.4zM79 22c.4 0 .3.3-.9.8h-.4l-.4.1c-2-.1.9-1 1.7-.9zm21.2.1c.5 0 1 .2.4 1l-.6.3c-2.1-.4-.8-1.2.2-1.3zm8.6.2c1.4 0 3.4.4 3.8 1.4-1.6.8-3.5.2-5-.4-.6-.6.1-1 1.2-1zm-24.2 0c1.6 0 1 2.4-1 1.9l-1.3.1c-3.9.8-.4-2.4 1.4-1.8l.9-.1zm-9.7.3c.2 0 .1.3-.7 1l-.4.2c-3.1.8.5-1.2 1.1-1.2zm27.5.4c.2 0 .4.3.5.8-1.3 1.7-1-.9-.5-.8zm12.9.1c1.3 0 3.2.7 3.8 1.4-1.5.9-3.4.2-5-.3-.5-.8.1-1.1 1.2-1zm-48 0c.3 0 .6.3.3 1.3-2.4.4-1-1.2-.3-1.3zm10.4.4c1.5 0 2.5 1.4 0 1.5-1.3.7-4.2.4-1.5-1 .5-.4 1-.6 1.5-.5zm14.6.4c2 0 4 1 1.8 1.8-1.1 0-3.6.7-4.3-.5.2-1 1.4-1.3 2.5-1.3zM71 24c.2 0 0 .3-.8 1l-.6.2c-2 .3.8-1.2 1.4-1.2zm36.2.2c.9 0 1.8.4 2 1.3-1 .6-2.1.6-3.2.6-2.6-.7-.6-1.9 1.2-1.9zm-19.7.1c1.4 0 2.3.5 1.5 1.7-.6-.2-6.5 1.5-5-.8.6-.5 2.2-.9 3.5-.9zm34.5.3c1 0 2.5.4 3.3 1.5-.8.3-1.6 0-2.4 0-2.8-1-2.2-1.6-1-1.5zm-9.4.3c1.4 0 3 .4 3.2 1.5-1.2.7-2.6.5-4 0-2.4-.8-1-1.5.8-1.5zm-39.2 0c.8 0 1.1.3-.1 1.2-.8.3-1.5.6-2.3.7-2.4-.6.9-1.8 2.4-1.8zm8 0c1.5 0 2 2-.3 2l-1.5.2c-3 .4-1-2.2.8-2l1-.1zm37.8.9c1.2 0 2.5.4 2.8 1.5-.9 1-2.3.5-3.3.2-2.7-1-1.3-1.7.5-1.7zm8.9.3c.8 0 1.5.3 1.5 1.2-.3 1.1-1.4.4-2 0-2.1-.5-.8-1.3.5-1.2zm-52 0c1.3 0 .5 2.4-1.2 2.2-3.2 1-2.6-2.5.4-2l.8-.2zm18.8.6c.2 0 .5.2.6.7l-.3.2c-2.1.8-1.2-1-.3-1zm-4.6 0c1.2 0 2.1.2 1.9 1-1.2-.1-5.2 1.6-4.8-.6a9 9 0 0 1 2.9-.4zm18.4 0c1.3.1 3 .5 3.4 1.3-1.3 1-3.2.1-4.7 0-1-.8 0-1.2 1.3-1.2zm-23 .4c1.9 0-.5 2-1.8 1.4l-1.9.2c-2.9-.7 2-1.8 3-1.6h.8zm38.8.2c1.2 0 2.8.6 2.4 1.8-.8.4-1.7.1-2.5-.2-2-1-1.1-1.6 0-1.6zm-52.9.1c.4 0 .5.4.2 1.4-3 1.1-1-1.3-.2-1.4zm43.3.3c1.3 0 3 .6 3.8 1.2-1.6.7-3.8.3-5.3-.6.1-.4.7-.6 1.5-.6zm-36.1.5c1 0 1.7.4-.1 1.2-.9.2-1.8.4-2.7.4-1-1.1 1.3-1.6 2.8-1.6zm16.6.3c.6 0 1 .1.5.5l-1.4.3c-2.8 0-.4-.7.9-.8zm5 0c.4 0 .8.1 1 .3a5 5 0 0 1-1.6.4c-3.1.4-1-.6.6-.6zm-10.5.2c.5 0 1 0 1.3.4-.4.3-1 .3-1.4.4-2.8.5-1.4-.7 0-.8zm-20.3 0c.3 0 .3.4-.3 1.2-1.7.1-.2-1.2.3-1.1zm35.6.1c.4 0 1 0 1.2.3-.6.3-1.3.2-2 .2-2.5 0-.7-.5.8-.5zm16 0c1.2 0 3 .4 3.3 1.3-1 .7-2.2.2-3.3 0-1.8-.7-1.2-1.2 0-1.2zm-47.3.2c1.2 0 1 2-1 1.7l-.6.2c-2.5.9-.8-1.6.5-1.6a2 2 0 0 1 1-.3zM86 29c.4 0 .3.2-.9.8l-.7.2-.7.1c-3.3.1 1.1-1.1 2.3-1zm28 .6c.5 0 .9.1.7.6-.5.2-1 .1-1.5-.1-2.2 0-.4-.6.7-.5zm-33.6 0c.8 0 .4 1.1-1 1.1-2.4 1.2-2-.5 0-.7.4-.3.8-.4 1-.4zm46.4.8c.5 0 1.1.3 1.2 1-.3.5-.9.2-1.2.1-1.8-.5-1-1.1 0-1.1zm-51.6.4c.6 0 .2.8-1 1.1-2.9 1.3-1.5-.1 0-.6l1-.5zM73.9 36c.3 0 .7.2 1.1.5.9.5-.6.4-.7.4-2.1.2-1.5-.9-.4-.9zm4 1.1c.3 0 .7 0 1.1.2.8.7 5.9.3 3.7 1.1-1.6.9-3.1-.3-4.6-.6-2.1-.2-1.4-.7-.2-.7zm41.8.8c.9-.1.2 1.2-1.2 1.1-1.7 1.1-1-1.2.3-.9l.9-.2zm-33.7.4c.6 0 1.2.2 1.4.7-.6.2-1.3.2-1.9.3-2.8.2-1-1 .5-1zm28.9.5c.4 0 .4.1-.6.5h-.2l-.2.1c-2.8.3 0-.5 1-.6zm-24.2.3c1 0 2 .2.7.6l-1.9.3c-2.1-.6-.3-1 1.2-1zm19.6.1c.2 0 .2.1-.4.5h-.4c-3.4.7 0-.5.8-.5zm-14 0c.4 0 .7.2 1 .4-.5.3-1 .3-1.5.4-3.2.6-1.2-.8.5-.7zm3.8.3c.3 0 .7 0 1 .4l-1 .2c-2.2.5-1.2-.6 0-.6zm5.3 0c.5 0 .6.1-.1.5h-.7l-.7.1c-2.3 0 .4-.6 1.5-.6zM56 48.4c-2.2 0-1.8 1.7-2 15a1979 1979 0 0 0-.6 40.7l-.2 24.9c-.2 11.3 0 14.4 2 16.5v-.1l.1.1.8.8c2.8 2.3 3.1 2.3 18.8 2.4 14.5 0 16.5.1 18.7 1.4 2 1.2 3.6 3.3 3.6 4.7l.2.7c.4.4.7.1 1.5-1.8.6-1.4 2-2.8 3.5-3.7l1.4-.8h15.4c13.7 0 19.5.4 22-3.7h-.1l.3-.6v.2c1.8-3.3 1.6-9.4 1.7-20.5l.3-15.2.2-13.1a750.4 750.4 0 0 1 .6-34.7l.2-12.3h-8l-19.5-.1a11372.4 11372.4 0 0 0-58.5-.6l-2.4-.2zm-.2 1.6l16.8.2a28366.5 28366.5 0 0 0 60.5.7h9.3v7.9a7899.7 7899.7 0 0 0-.6 49.2l-.2 14.2c0 5.6 0 10.5-.2 12.3v1c-.4 1-1.3.5-3.4-.3-4-1.4-5.5-1.7-5.7-.9-.1.5-.3.5-1.2.5-.6 0-1 0-1.2.2-.1.2-.7.3-1.4.4h-1.9c-.4.1-1.3-.1-2-.4l-2.8-1.2c-1.9-.6-1.7-.6-3.4 1-.4.3-.9.6-1 .5-.4-.2-1.6.4-2.2 1-.2.3-.6.5-.8.5-.3 0-.5.2-.5.4 0 .3-.1.4-.4.3-.4-.1-2.6.6-2.9 1h-.3c-.3-.5.3-1.2 1-1.3 3.5-.4 2.8-1.2-2.4-2.8l-3-1.1c-.2-.5-2.2-.3-2.2.1 0 .3-.2.4-.4.4s-.4.2-.4.3c0 .2-.3.3-2 .3a9 9 0 0 1-2.7-1c-2-1-3.6-.7-3.3.5 0 .4 0 .5-.6.5s-.9.2-1 .5c-.1.4-.3.5-.7.4-.7-.2-1.8.4-1.8 1 0 .1-.2.2-.5.1-.2 0-1 .2-1.9.6-.8.3-1.7.6-1.8.5-.2 0-.5 0-.8.3-.3.2-.9.4-1.3.4s-.7 0-.7.2l-1.4.2c-1.4 0-1.4 0-.8-.5.3-.3 1-.5 1.3-.5 1 0 1.2 0 2-.5l.7-.4 4.5-1.3c1.2-.5.8-.8-1.2-1.1a30 30 0 0 1-4.5-1.4c-3.7-1.4-4-1.4-4.4-.5-.3.5-.6.6-1.4.6-.6 0-1 .1-1 .3 0 0-.4.3-1 .4-.4.2-.8.5-.8.7 0 .2-.3.4-.7.5-.5 0-.8.3-1 .6 0 .3-.2.5-.4.4H73l-1.1.3c-.6 0-2.2.3-3.7.7-1.4.5-2.7.7-2.8.6-.3-.4.2-1 1-1 .5 0 1 0 1.3-.2l2-.7c2.8-1 3-1 1.7-1.2-2.6-.5-4.2-.9-6.4-1.5-1.9-.6-2.4-.7-2.6-.4-.1.2-.4.3-.8.1l-.6.1c0 .2-.3.4-.7.5-.5 0-.6.2-.5.7.2.5-.5.7-.8.2-.2-.4-1.6-.3-2 .1-.2.2-.6.5-1 .6-.5.1-.6.2-.3.5.4.5.1 1.3-.4 1l-.2-.1v-2c-.6-1.3-.6-8.5-.1-27.3l.1-6.5v-14a4057 4057 0 0 0 .3-31.2h.2V50zm43.6 6.7c-.8 0-1.6.2-1.6.6 0 .2-.3.6-.7 1-1 .8-.4 2.3 1 2.3.3 0 .5.1.5.3l.1.6c.3.7-1.7.9-2.3.1-.4-.5-.6-.5-1-.3-.8.5-1 .5-.7-.2.2-.7-.2-.6-.7 0-.3.5-.2.7.1 1 .6.4.4.8-.4 1-.7.2-1.6-.6-1.6-1.5s-1-1.5-2.3-1.4c-1 0-1.6.5-.7.8 1 .3 2.5 2 2.5 2.9 0 1.5.1 1.7.3 2 .2.3 1 .5 4.8 1.1 3.3.6 9.7-.1 9.7-1.1s3-5 4-5.4c.3 0 .3-.2 0-.4-.6-.8-3.5.7-3.5 1.8 0 1-1.4 1.5-1.7.7-.2-.4-.2-.4-.7 0-.7.7-1.3-.6-.5-1.4.2-.2.2-.4.1-.5-.2-.3-1 .6-1 1.2s-.6.8-.9.3h-.6c-1.3.3-2-1.4-.8-1.7 1-.3 1.6-2 .8-2.2-.2-.1-.3-.3-.3-.5s-.3-.6-.7-.8c-.3-.2-.7-.3-1.2-.3zm-.4 1l.1.2c0 .2-.1.3-.3.3-.1 0-.2-.1-.1-.3l.3-.3zM95.6 62c.2 0 .3 0 .3.2s-.1.3-.3.3a.3.3 0 0 1-.3-.3l.3-.2zm-1.5 2v.6s-.1-.1 0-.4V64zm8 4.7h-.2c-.5.1 0 .9.7 1.1.5.2-.7 2.2-1.4 2.5-1.2.5-.6 2.8.7 2.4.2 0 .4 0 .4.2 0 .1-.1.2-.3.2-.1 0 0 .3.4.7.7.8 1.6 1 1.4.3-.1-.3 0-.4.4-.4 1 0 1.8 1.3 1 1.7v.5c.5.4.4 1.2 0 2-.5.6-.5.7 0 1.3.8.7.8 1 .1.7-.7-.4-1-.4-1 .1 0 .3 0 .4.2.4.5-.2 1.5.8 1.1 1A5 5 0 0 0 104 85c-.4.8-.4 1 .2 1 .3 0 .6 0 .6.3 0 .6-.5.7-.9.3-.5-.6-.7-.5-1.1.5l-.7 1c-.2 0-.3.1-.3.3 0 .2-.4.5-.8.7-1 .5-2.2-.4-1.6-1.2.3-.4 0-1-.3-.8-.4.3-.3-.3.1-.6.6-.5.5-.8 0-.9-.5 0-.5 0 0-.1l.4-.4c0-.2.2-.2.3-.1.2.1.2.2 0 .4-.3.2-.3.2 0 .2s.6.2.6.4c.2.5 1.2-.3 1.2-.9 0-.8-.4-1-.8-.4-.4.5-.4.5-.4-.2 0-.4-.2-.8-.5-1-.2 0-.3-.2-.3-.4.1-.2 0-.4-.1-.5-.2 0-.2-.3-.1-.6.4-.9.4-2.8 0-3-.2 0-.3-.5-.3-1.3.2-1.6-3.7-3.4-4.5-2-.2.2-2 .3-2 0l.3-.4c.3 0 .4-.4.4-.7 0-.4 0-.5-.4-.4l-.9-.1c-.6-.4-1 .1-.6.6.2.1.3.5.3.8 0 .2.4.6.8.9.7.4.9.6.6.8l.1.1H93l-1.6.3c-2 .1-2 .6.2 1 1 .2 1.2.3 1.4 1l.3 1.1c.1.3.4.3 1.2-.1.8-.5 1.1-.5 1.7-.2 1.3.6.3 2.3-1.7 2.7-.7.2-.8.2-.4.4h1.2c.5-.1.8 0 1 .1l.7.5c.2 0 .1.3-.3.7l-.6.6.9.8c.5.5.8.9.6 1-.2 0-.2.4-.2.8a3 3 0 0 1-.4 1.7c-.7 1.2-1.4 1.6-1.4.9l-.1-1.5c0-.5 0-1 .2-1.2.2-.3.2-.5 0-.7-.2-.2-.4-.6-.4-.9 0-.7-.5-1.2-1.2-1.2-.3 0-.7-.2-.7-.4-.1-.2-.5-.4-1-.4s-.6 0-.3-.4.1-.4-1.4-.4H89l-1.8-2a30 30 0 0 1-3.8-4.6c-.4-.4-.7-.9-.7-1.1 0-.2-.3-.7-.6-1l-1-1.6c-.5-1.3-3-2.6-3-1.6 0 .2.3.3.7.3 1.4 0 .9.7-1 1.3-1.2.3-1.2.7 0 1.2.6.3 1.1.7 1.2 1 .1.1.4.3.8.3s.5 0 .2.3c-.2.3-.4.3-.8 0-.8-.5-1-.4-2 .5l-.8.8 1-.1c1.7-.2 2.5 1.4 1 1.8-.3 0-.6.3-.6.4 0 .2.2.3.3.2.2-.1.5 0 .7.1.3.3 1.2.1 1.2-.3s.7-.2 1.1.3c.3.3.5.7.5 1l.2.4c.2 0 .3.2.4.5.2.6.7.8.7.2l.6.2c.7.6.7 1 0 .8-.5-.1-.5 0-.5 2.3s.4 3.4.7 2.2c0-.3.4-.7.8-.7.7-.2 1-1.2.6-2s-.7-.7-1 .3l-.1.9-.3-.8c-.2-.7-.1-1 .5-1.4.6-.5.7-.7.5-1.3-.1-.6 0-.7.3-.6.3.1.6 0 .7-.2.1-.2.2-.2.2.2 0 .2.1.4.3.4.3 0 1.3 1.8 1.3 2.3 0 .3-.2.4-.5.4-.6 0-.7.6-.2 1 .3.4 0 1.3-.4 1-.2-.1-.3 0-.2.2.1.3 0 .6 0 .8-.2.3-.3.3-.5-.2-.1-.7-.5-.8-.7-.2 0 .2 0 .5.2.6.2 0 .5.4.6.6.2.6.6.7.6.1 0-.5.7-.5 1.3.2.6.6-.3 1.6-1.4 1.6-.4 0-.7.1-.8.3l-.7.2c-.3 0-.5.2-.4.3.1.2.4.2.7.1.3 0 .5 0 .5.2 0 .1.5.2 1.1.2 1 0 1.1.1 1 .5l-.2.6c0 .5-1 .3-1-.2-.1-.4-.1-.4-.2 0-.1.3-.3.5-.5.5-.3 0-.4-.2-.5-.5 0-.4 0-.4-.1 0-.1.3-.4.5-1 .5-.9 0-1.2-.4-.6-1.1.4-.4.4-.5.1-.5-.2 0-.7.3-1 .8-.6.6-1 .8-2.5.9-1 0-2 .2-2.1.3l-.4-.1c-.1-.2 0-.4.2-.5.6-.2.6-.6 0-.6l-1-.5c-.3-.3-.5-.3-.8-.1-.2.2-.4.2-.8-.2-.5-.6-1.7-.7-2.4-.2-.7.5-.6.8.4.7 1.1-.2 1.2.3.4 1.3-.8 1-.9 1.1-.3 1.1.2 0 .4 0 .4-.2 0-.5.4-.4 1.1.2.6.6.6.6.1 1-.3.2-.5.6-.6 1 0 .5.2.6.6.2l1.5-.4c.2-.3.5-.3.7-.1.7 0 .7.2.6 1.2 0 .8 1 .5 1.7-.5 1.2-1.7 5.5-2.4 7.3-1.2 1.1.7 2.3.9 1.7.2-1-1 1.9-1.6 3-.6a19 19 0 0 0 5.1 3.4l2.7 1.3c.5.2 1.1 1.6 1.1 2.2v.4c-.4.3-1.6.3-1.6 0 0-.1-.1-.3-.4-.3-.2 0-.4 0-.4-.2 0-.1-.6-.4-1.3-.6-1.8-.4-5.6.1-5.1.7.3.4-.6 1-1.6 1-.6 0-2-1-2-1.3 0-.2 0-.4-.2-.4s-.2.3-.1.6c.1.4 0 .5-.7.7l-1 .2 1 .7c.5.5 1 .8 1.1.8l1 .4.6.5-.9.7c-.4.4-.7.9-.6 1 .7 1.2-.4 1.3-2 .2l-1.4-1c-.6 0-1.3-.8-1.3-1.4 0-.3-.2-.7-.4-.8a.4.4 0 0 1-.3-.5c.3-.7-1.3-1.6-2.5-1.4l-1 .2.6.5c.7.5.4.8-.8.8-.6 0-2 .8-2 1.1 0 .1 0 .2.2.2h1.2c.5 0 2.6 2.2 2.4 2.5-.2.4-.6.3-.6-.2 0-.2-.2-.4-.3-.4-.2 0-.3.2-.3.5 0 .2-.3.6-.7 1-.3.2-.6.6-.6.8 0 .5-.2.5 1.9 0 2-.5 3.5.4 2.2 1.5-1 .8 0 1 1 .3.9-.7 1.5-.7 1.9 0 .1.3.5.5.8.5.3 0 .5.2.5.4 0 .5.6.8.8.5.2-.5 1.6-.7 1.8-.4 0 .2 0 .5-.2.8-.3.5-.3.6 0 .9.2.2.3.5.3.8l.1.5.6.2c.4.1.4 0 .3-.4-.3-.8 1.2-.9 2 0l1 .5c.7 0 .7-.3.2-.7-.7-.5-.3-2.5.4-2.6.3-.1.5-.4.5-.8 0-1.6 4.5-3.3 5-2 .6 1.4-1.4 3-2 1.6l-.6-.6c-.4 0-.2 1.2.3 1.8.5.5.8.6 2.2 1 1 .2.6 1.7-.8 2.4-.5.2-.8.5-.8.6.4.3 2.6-.2 3.2-.7.7-.7 1-.7 1.7-.2.3.3.9.4 1.3.4.8 0 1 .5.3.8-.3 0-.3.2 0 .3.3.2.3.4 0 .8-.5.7 0 .7.7 0l.9-.5-.6 1c-.9.9-1.3 1-1.3.6 0-.6-.8-.2-1.3.7-.6 1.2-1.7 1.4-4 1-1-.3-1.4-.2-2 .1-.7.5-.7.9 0 .9.6 0 1 .5.6.8-1.3.8-1.6 3.1-.3 2.4a6 6 0 0 1 2.2-.8c1-.2 1.8-.5 2-.8.1-.2.4-.3.5-.2.1.1 0 .4-.3.6-.2.1-.5.5-.5.8 0 .3-.3.5-.5.5s-.2 0 0 .4l.1 1.2c0 1.1.3 1 1.7-1l1.3-1.7 1 .8c1.5 1.1 2.2 0 1.3-1.7-.4-.7.4-1.4 1.1-1.2.3.1.6 0 .8-.5.2-.4.5-.7 1-.7.5-.1.8-.3.9-.7 0-.3.4-1 .8-1.5l.8-.9.8.6c1 .8 2.5 1.2 2 .6-.7-.8-.5-3.8.2-4.4 1-.8 1.5-1.8 1-1.8-.3 0-.5.2-.6.3-.2.3-1.2.4-1.2 0l.4-.9c.5-1-.2-1-1 0-1.3 1.2-3.2.3-3.2-1.6 0-1.4 1.4-3.5 2.1-3.3 2.3.6 4.2.5 5.1-.3 1.1-1 1.7-4.6.8-5l-.2-.8a9 9 0 0 0-.4-1.9c-.5-1.4-.3-2.8 1.1-7.5 1.1-3.7 1.2-4.2 1-5.5-.3-2.8-2.6-5-5.2-5-1.4 0-1.6.4-.3.9a8 8 0 0 1 1.7.7l1.1.7c.3 0 .5.4.5.7 0 .3-.1.5-.3.4h-.3c0 .2-.5.5-1 .8-1.5.7-1.5 1.3 0 1 1-.1 2.1.8 2.1 1.8 0 .3.2.6.4.6.2.1.2.3 0 .8-1 2-1.2 2.8-1.2 3.7 0 .6-.1 1.2-.3 1.3a4 4 0 0 0-.6 1.8c-.3 1.6-.7 2-1.1 1-.2-.3-.4-.6-.6-.6-.4 0-.4.2 0 1.5V99c-.4.4 0 .7 1.4 1 1.8.4 2.3 3.6.8 5.2-.8.8-1.7 1.3-1.4.7.1-.2-.3-.3-.9-.4-1.5-.3-3-1.5-3.5-2.6a22 22 0 0 0-3.1-5c-1.7-2-2.4-4-1.6-4.3.5-.2.5-.7 0-.7-.6 0-1.3-1.3-1.3-2.5s.4-1.5 1.5-1.5c.7 0 .7 0 .5-.6-.5-.8-.4-2.6 0-3.3.3-.3.5-1.2.6-2 .2-1 .4-1.5.8-1.7 1-.6 1.4-1.8.4-1.4-.8.2-1.3-.6-1.3-2.4 0-.8-.1-1.6-.3-1.7l-.2-.7c0-.4-.2-1-.5-1.3-.4-.5-.4-.6 0-1 .7-.8.3-1.2-.6-1-.7.1-.8 0-1-.6-.2-1-1.5-2.4-2.3-2.5zm-.8 1.8h-.4c-.6 0-1 .3-1 .5 0 .6 1.7.4 1.8-.2 0-.2 0-.3-.4-.3zm-2.5 0c-.5 0-.6.1-.2.3.5.4.8.4.8 0l-.6-.2zm-2.2 1.2c-.6 0-1.3.1-1.5.4 0 .2-.7.5-1.4.7-1.4.5-1.7 1-.5 1l.8-.2c0-.3 1.6-1.4 2-1.4.5 0 0 .7-.7 1.2-1 .6-1 1.1.1 1.3 1.7.2 1.8.2 1.8-.2 0-.3-.1-.4-.3-.4-.1 0-.2-.2 0-.3 0-.1.6-.3 1.1-.3 1.3 0 1.4-.4.4-1.3-.3-.3-1-.5-1.8-.5zm6 .3c.6.1.6.7.2.7a.4.4 0 0 1-.5-.4c0-.2.1-.3.3-.3zm-24 1.4c.3 0 1.4.7 1.4 1 0 .3-.4.2-1-.3-.5-.3-.7-.6-.6-.7h.1zm24.4 1.2c.2 0 .4.1.4.3l-.4.2c-.2 0-.4 0-.4-.2s.2-.3.4-.3zM81 75c.4 0 .9.6 1.3 1.4.3.7.3.9 0 1.2-.2.3-.4.1-.7-.9l-.6-1.3c-.2 0-.3-.2-.1-.3h.1zm20.2.3s-.2 0-.3.2c-.3.2-.4.4-.4.5h.4c.2 0 .4-.1.4-.4l-.1-.3zm-6 1.3c.4 0 .5 0 .1.3-.5.3-.8.3-.8 0 0-.2.3-.3.6-.3zm.9 1c.4 0 .6.1.5.2L95 78c-1 0-1.4 0-1-.2l2.2-.2zm-3.7.6l.3.1-.3.1c-.4 0-.5 0-.4-.1h.4zm2.8.4h.3l.8.2-.7.4c-.8.4-1.3.4-1.5.1-.2-.4.5-.8 1.1-.7zm-13.7.2c.2 0 .6.4.7.6.3.6-.3.8-.6.2l-.3-.7h.2zm18.7.2l.4.8c.4.8.7 1 1 .7.1-.1 0-.4-.1-.6-.2-.2-.2-.4-.1-.5 0-.2.3 0 .4.1.1.2.3.3.5.2.6-.4.3-.7-1-.7h-1.1zm-16 .7h.1c.2.1.2.3.2.5-.1.2 0 .3.3.3.2 0 .4.1.5.3.1.4-1 .6-1.3.3-.3-.4 0-1.5.3-1.4zm-1.5 1c.1 0 .2 0 .2.2 0 .1 0 .3-.2.4-.2 0-.3 0-.3-.2 0-.3.1-.5.3-.5zm29 .5c-.3 0-.7.4-.7.7 0 .5.3.4.8 0l.2-.6h-.2zm.3 1c-.1 0-.2.1-.2.4 0 1-1.5 1.9-1.7 1-.1-.3-.2-.1-.4.5-.1.6-.5 1-.8 1.2-.4.2-.6.4-.6.5 0 .4 1.6.2 2.5-.3 1.3-.8 1.6-.6 1 .6-.7 1.2-.7 1.4 0 1l.5-.5a9 9 0 0 1 3-2.8c.4 0 0-.1-.8 0-1.3 0-1.4 0-1.4-.5 0-.4-.1-.5-.4-.4-.2 0-.4 0-.4-.3 0-.2-.1-.3-.3-.3zm-9.8.4c-.5 0-1.3.2-1.5.6-.3.5-.3.5 0 .2.4-.3.6-.3.7 0 .2.2 1.2-.2 1.2-.6 0-.2-.1-.2-.4-.2zm-3.7.5l.3.4h-.2c-.2 0-.3 0-.3-.2 0-.1 0-.2.2-.2zm-10.4.8c.1 0 .2.1.2.4 0 .2 0 .4-.2.4s-.3-.2-.3-.4c0-.3.1-.4.3-.4zm9.8 0l.1.3c0 .5-.1.6-.4.2 0-.1 0-.3.2-.4zm-9 .8c.1 0 .2 0 .2.2s0 .3-.2.3a.3.3 0 0 1 0-.5zm5.1 1.7c.4 0 .6.1.7.3.2.7-.6 1.3-1.3.8-.6-.4-.7-.3-1.5.1-1 .7-1.2.7-1 .2.2-.7 2-1.4 3.1-1.4zm-5.4.4c.3 0 .5.1.5.3 0 .1-.1.3-.3.3-.3 0-.5-.2-.6-.3 0-.2 0-.3.4-.3zm.9 3.5c1 0 1.4.5 1 1-.2.5-.2.6 0 .7.3.1.3.2 0 .5-.4.2-.4.2 0 .2.3 0 .5.2.5.3 0 .3-.3.3-1.1.1-.6-.2-.6-.8 0-1.5s-.2-.6-1 .1c-.3.3-.6.5-.6.3s.2-.3.3-.3c.2 0 .3-.3.3-.7 0-.5.1-.7.6-.7zm-2.1.3c.6 0 .5.4-.3.8-.8.3-1.2.4-1.2 0 0-.1.3-.3.5-.3.3 0 .6 0 .6-.2s.2-.3.4-.3zm-4.6 2.7c.3 0 .4.1.3.3l-.4.2c-.2 0-.3-.1-.3-.2 0-.2.2-.3.4-.3zm6 0c.3 0 .6 0 .6.2s-.3.3-.7.4c-.4 0-.6 0-.6-.2 0-.3.2-.4.6-.4zm12.4 0c.3 0 .9 1 .7 1.3-.2.4-.4.4-.8 0-.4-.1-.2-1.3.1-1.3zm1.4.5c.2 0 .3.1.3.3 0 .1-.1.3-.3.3a.3.3 0 0 1-.3-.3c0-.2.2-.3.3-.3zm.4 1.4c.4 0 .6 0 .5.2 0 .2-.4.3-.6.3-.3 0-.6-.1-.6-.3 0-.1.3-.2.7-.2zm0 1.1c.4 0 .7.1.7.4 0 .4 0 .4.4 0 .4-.3.5-.3.3.3-.1.5-.1.6.5.1.7-.4.7-.4.5.3-.1.6 0 .8.6 1 .4.2.5.4.3.6-.5.3 0 .8.7.6.4-.2.5 0 .4.4-.1.4 0 .8.5 1.3.6.5.6.7.4 1-.2.1-.3.4-.3.6 0 .3 0 .3.4 0 .4-.5 1.2-.1 1.2.5l.5.5c.4.3.4.4 0 .8-.2.3-.4.4-.7.1-.3-.2-.4-.2-.6 0-.2.4-.3.4-.5.2-.1-.2-.4-.3-.8-.1-.5.2-.6.3-.3.6.2.4.4.4.7.1.3-.2.4-.2.2.4-.1.5 0 .7.1.7.2 0 .3.2.3.3 0 .1-.4.2-1 .2-1-.1-1.1 0-1.2.5-.1.3-.4.7-.7.8-.7.2-.7.6 0 1 .3.1.5.4.5.7 0 .3 0 .3.4 0 .5-.3.5-.3.6.5.2 1.7.7 2.2 1.7 1.6.8-.4 1.2.3.6 1-.3.4-.3.4.2.7.4.2.5.2.5 0s.2-.1.6 0c.4.3.6.3 1 0s.4-.3.2.2l.1.8c.2 0 .2.3.1.4 0 .2-.2.1-.4-.1-.6-.7-1.5-.9-1.4-.2.1.3.4.5.7.5.3 0 .5.2.5.3 0 .2-.2.3-.4.3l-1.1.1c-.6.1-1 0-1.3-.3-.3-.3-.5-.4-.8-.2-.5.4-1.6-.2-1.2-.7.2-.2.2-.3-.1-.3-.3 0-.5.2-.6.3-.2.7-2.6 0-2.6-.7 0-.3.1-.7.3-.8.5-.3.2-.7-.5-.7-.5 0-1 0-1-.2-.1-.2-.4-.3-.6-.2-.3.1-.6 0-.8-.4-.2-.3-.2-.5 0-.5l.2-.6c0-1 .9-1.1 1.8-.2.5.6.8.7 1 .5 0-.3.3-.3.6 0 .4.2.6.2 1-.1.7-.5.5-.7-.5-.5-.9.1-1 0-1.1-.4-.2-.6-.4-.7-1.1-.6-.2 0-.3-.3-.3-.8.2-1.3-.6-2-1.4-1.3l-.4 1c.1.2 0 .3-.1.3-.6 0-.6-1 .2-1.8.7-1 1.4-1.1 1.4-.5 0 .2.1.4.4.4.2 0 .4.2.4.5s0 .3.4 0c.5-.4.6-3 0-2.8-.1 0-.2 0 0 0 .4-.3 1-3.1.6-3.4-.2 0-.4-.3-.4-.5s-.2-.5-.6-.7c-1-.5-1.2-.8-.7-1.4.6-.6.5-1-.2-1.2-.5-.2-.5-.3 0-.7.2-.3.6-.5 1-.5zm-7.7.5l.7.1c1.5.3 1.8.7.6.7-.5 0-1-.2-1.3-.4-.2-.3-.2-.4 0-.4zM39 98c-.3 0-.7.2-1.2.7a45 45 0 0 1-2.4 2c-.7.6-1.5 1.6-1.8 2.3-.4.7-1 1.8-1.6 2.4-1 1.3-1.9 3.3-1.7 3.9.2.5-.3 1.8-.7 1.8-.4 0-1.6 1.1-1.6 1.5l-.9 1.3a20 20 0 0 0-1.6 2.4c-.4.7-1 1.5-1 1.7-.3.3-.4 1.6-.4 3.7 0 3.5.4 4.4 2.3 7.4.7 1.1.8 1.4.8 4s.5 6.6 1.1 8.5c.6 2 0 2.5-1 1.2-1-1-1.2-2.1-1-3.6l-.1-1.4c-.3-.4-.3 0-.3 1.4l-.2 2.1c-.3.3-1-1.1-1-1.9 0-.4 0-.6-.3-.6-.4 0-.4-.2-.3-.7 0-.4 0-.8-.3-1-.5-.6-.2-1.1.6-1.2.4 0 .6.1.7.5.2.6.8.7.8.2a3 3 0 0 0-.4-1 3 3 0 0 1-.4-1.6c0-1.2-.5-2-2.3-4.5l-1.5-2.5c0-.2-.1-.3-.3-.3-.1 0-.3 1-.3 2.5 0 1.6.2 2.6.3 2.6.2 0 .3-.2.3-.3 0-.7.5.4.5 1.1 0 .4.1.8.3 1 .6.6.7 4.2.1 4-.4 0-.5-.2-.4-1.3 0-1.6-.5-1.6-.9-.1-.2.7 0 1.2.5 2.4.4.8.7 1.6.7 1.9 0 1.2 2.2 3 4.3 3.3 2.2.4 2.6.6 2.8 1.7.1.5.3.9.5 1l.2.8c0 .8-.7.9-.9.1-.2-.8-2-1.5-2.5-1-1.1.9 0 2 2.2 2.2l1.7.2.5 1.3 2.2 5 1.8 3.9c-.3.2-1.6-.7-2.4-1.9a77.9 77.9 0 0 0-1.5-2c-.5-1.3-7-6.7-9-7.4-1.9-.6-1.7.2.5 2.6 1 1 1.9 2.1 2 2.5.3.4.7 1 1 1 .9.6 1.6 1.7 1.1 2-.3.2-.3.2 0 .2.8-.1 1.5.3 1.1.6-1 .7-2.1 0-2.1-1.4 0-.4-.2-.5-.7-.5-.9 0-2.9-2-2.7-2.7.1-.3 0-.5-.4-.6-.3-.1-.5-.4-.5-.8s0-.5-.3-.3c-.7.7.3 2.7 2.4 4.7 1 1 2 2 2 2.3 0 .3 1.3 1.6 2.4 2.3 1 .7 3.7 1 5 .7 2-.5 2.9-.1 4.2 1.7 1.7 2.3 1.5 2.8-.5 1.4-2-1.3-3.5-.1-1.7 1.3.9.8 1.7 1 2.5.4 1-.7 1.6-.5 2.4.7l2.6 3.1c3 3.4.7 3.3-3.8-.3a10 10 0 0 0-2.7-1c-1.1-.3-2.5-.9-3-1.3a13.3 13.3 0 0 0-4.3-2.2c-1-.3-2-.7-2.3-1-1.3-.8-1 .3.8 2.4.6.6 1 1.3 1 1.5 0 .2.1.3.3.3.1 0 .3.3.3.6 0 1.3.8 2 4.7 3.8l1.1.7c2 1.9 6.7 1.9 9 0 1.3-1 1-1 4 1.6 3.5 3.3 6.9 5.8 12.2 9 .8.5.8.6.3 1-.6.4-1.7 0-3.6-1.6a8.2 8.2 0 0 0-4.4-2.1l-3.2-1c-1.5-.6-2.2-.7-5.2-.8l-4.1-.2c-.9-.1-.8.4 0 .9 1.1.4 3 2 4.7 3.7a8 8 0 0 0 5.2 2.6l3.5.7c3.3 1 6.5.3 7.6-1.5.4-.7 4 .4 4 1.2 0 .2.3.3.6.3a9 9 0 0 1 2.5.9c1 .5 2.2 1 2.5 1 2.8.9 3.7 1.6 2.3 2-.7.1-1.4 0-3.4-.6-1-.3-1.8-.4-3.4-.2a94 94 0 0 1-6.1.2c-3.5 0-4.3.1-5.5.6l-2 .8c-.7.2-.3.5 1 1 .6.1 1.8.7 2.7 1.2 2.1 1.1 3.6 1.4 7.8 1.4 2 0 3.6.1 3.6.2.4.3-.9 1-2.5 1.4-2 .6-2.3 1-.7 1.2.5 0 1.5.3 2 .6 2.8 1.1 5.4 1 8.7-.5 3.6-1.7 5.6-1.2 2.2.6a25.6 25.6 0 0 0-11 8.9c-1 2.2 1.1 1.5 4.7-1.6 3.8-3.3 13.7-9 14.8-8.5 1.1.4-2.8 5-5.3 6.4-.5.3-1 .6-1 .8 0 .4 5.2.2 5.3-.2 0-.2.6-1 1.2-1.7s1-1.4 1-1.5c0-.2.2-.4.4-.5.2 0 .5-.6.7-1.3a9.6 9.6 0 0 1 5.5-5.5c.3 0 .7-.3 1-.5h.5l-.6.8c-1.9 1.2-3.7 3.8-3.7 5 0 1.5-2.7 5.5-3 4.5 0-.2-.3-.2-.6-.1-.5.2-.5.2 0 .5.4.3.5.7.4 2.6 0 2.5.1 2.6 1.5 1.1 2.8-2.8 4-5 4.4-8.4.5-4 .7-4.3 4.3-4.3 3.4 0 4.1.6 3.2 2.6-.6 1.1-.7 6-.2 8.5l.6 3.3c.3 1.5.3 1.8 0 2-.2.3-.3.5-.2.6.3.5 3.4.3 3.5-.2 0-.3.3-.7.4-.9l.4-.8c.3-.7.9-.7 2.6-.2 3.4 1.2 3.4 1.2 3 .3-.7-1.3-1.7-4-1.7-4.5 0-.4-.1-.7-.3-.8l-.2-1c0-.6-.1-1-.3-1.2l-.7-1.7a29 29 0 0 0-1.1-3c-1.3-2.6 1.9-1.7 8.6 2.3 3.2 2 3.8 2.4 7.4 5.5 2.7 2.3 6.3 4 6.3 3 0-1.3-4.8-5.9-9.2-8.8a66.5 66.5 0 0 0-11.9-5.5c-.3 0-2.7-1.1-2.6-1.2a89.2 89.2 0 0 1 10.3-1.8c.9-.4 1.8.2 2.4 1.4.3.5.7.8 1 .8.7 0 3.2 1.7 3.2 2.1 0 .5-.5.3-1-.3-.4-.4-.7-.5-1.3-.4l-1 .3c-.8 0 0 .6.7.6.8 0 .9 0 1 .9 0 1 1 2 1.7 1.8.6-.2 1.5.5 1.5 1 0 .9 1.7 1.3 2.8.6l1-.5.8.8c.9 1.1 2.7 1.3 3.3.3.3-.5.5-.5 1.3-.3 1.5.6 3.2-.3 3.2-1.7 0-.6-2.1-2-3.1-2-.4 0-2-1.9-2-2.3 0-.7-1.2-1.2-2.1-.9-1.1.4-1.8.2-1.5-.6.2-.7-.3-1.3-1.3-1.3s-1.2.5-.2.6c1.7.2 1.1.6-.8.7-1 0-2.3.1-2.9.3-1.3.3-2.5 0-2.5-.6 0-.3.3-.5.9-.5l1.6-.1.9.1c0 .2.5.3 1 .3h.8l-1.1-.5c-1-.5-1.4-.5-2.8-.3-3.5.7-4.6-.4-1.5-1.3l4.3-1.4 2.4-.8 1 .5c1.5.8 2.7 1.9 2.7 2.5 0 .3.2.5.3.5.2 0 .3.2.2.4-.2.5 1 1.5 1.7 1.3.7-.2 1.6.1 1.6.6 0 1.1 2.5 1.9 3 .8.4-.8.8-.9 1.9 0 .5.3 1.2.5 2 .6.5 0 1.4 0 1.9.2.6.2 1 0 1.6-.5a3 3 0 0 1 1.4-.7c.6 0 2.2-1.3 2.2-1.9 0-.4-1.1-1.3-2-1.6-.6-.2-1-.5-1-.8 0-1-1.7-1.7-4-1.5-2.3.2-2.5 0-2.8-1.1-.1-.9.1-1.2 1.2-1.2 1.6 0 .6-1.7-1.3-2.3-1-.3-2.8 1-1.8 1.3.2.1.4.5.5 1 .1.5.3.8.4.8.1 0 .4.4.5.8.6 1.7 2.1 2.3 3.2 1.3.4-.3 2-.2 2.7.2 1 .6.8.9-.5 1h-1.9c-.5.2-.8.2-.9-.2-.2-.6-.6-.5-.7.2 0 .4-.2.6-.6.6l-2.4-.3c-1-.1-2-.3-2-.5-.1-.4 2-.7 2-.3.1.1.3 0 .5-.1.3-.2.4-.2.4 0s0 .3.2.2c0 0 0-.5-.3-.8-.4-.7-.6-.7-3.2 0-1.2.4-3 .3-3 0-.3-.7 1.7-1.6 2.2-1.1.6.4 1.7.2 2.8-.6.8-.5 0-.5-1.1 0-.7.4-.8.4-1.3 0-.7-.5-1.2-.5-2.4.4-1.2 1-2.5 1.3-3.3.9-1-.5-.7-.9 1.5-1.8a333.8 333.8 0 0 0 5.4-2.3c.3 0 .6-.2.8-.5.3-.5 3-2 3.7-2 .2 0 1 .5 1.7 1 .8.5 1.5 1 1.7 1 .2 0 1 .5 1.7 1.2 1.2 1.1 1.4 1.2 2.3 1a5 5 0 0 1 2.3.4c1.3.6 2 .5 2.5-.4.3-.4.4-.4 1.8-.1 1.4.3 1.5.3 2.3-.2.4-.3 1-.6 1.5-.6.6 0 2-1.4 2-2 0-.2.3-.6.7-.8 1.3-.8.8-1.9-.8-2-1 0-1.6-.3-2-.6-.6-.6-.7-.6-2.3-.3l-2.2.5a2 2 0 0 1-1.4-.6c-1-.9-1.9-.8-3 .1-1 .8-2.2 1.1-2.2.6 0-.5-.9-.3-2.1.6-1.5 1.1-2.3 1.4-3.2 1.2-.8-.3-.8-.8.1-1.3l3.5-2.5 3-2c.2 0 .4-.3.6-.6l1.8-1.7c1.6-1.4 1.1-1.4 4.3 0 .5.2.9.5.9.6 0 1.1 2.6 2.3 3.2 1.5.5-.6 1.2-.5 2.3.4 1.2 1 2.6 1 3.6.3.4-.3 1-.5 1.5-.5 1.3 0 1.6-.2 1.5-1.4-.1-.6 0-1 .3-1.2.3-.3.2-.3-.4-.2-.6.1-.7.2-.6.7.3 1 0 1.5-1 1.5-.6 0-1.2.2-1.5.6-1 .9-3.4.3-3.9-1-.2-.6-1.4-.3-2.1.4-.8.8-1.2.6-2.3-1-.8-1.2-.9-1.1 2-1.1 2.3 0 2.5 0 2.5.5 0 .4.3.6.8.7l1.3.6c.4.3.7.3 1 .1.2-.2-1.5-2-2-2-.2 0-.3 0-.3-.2s.5-.3 1-.3c.6 0 1.2-.1 1.4-.3.4-.4 5.2-.3 6 0 .6.4.6.4.2.5-.6.1-.7.6-.1.6s1.8-1 1.7-1.5c-.1-.2.1-.6.5-.8 2-1.2 1.6-2.7-.6-2.9-.8 0-1.7-.2-2-.4-.6-.4-2-.4-2.3 0l-1.2.2c-1 0-2.3.6-2.6 1.3-.2.5-1.2.5-1.2 0 0-.9-1-.8-2.8.4-.5.3-.7.3-1.3 0-.6-.4-.8-.3-2.1.9-1.6 1.4-2.5 1.8-3.2 1.6-.8-.2-.7-.4 1.9-3a21.5 21.5 0 0 0 3.8-4.7l1.6-2.3c.5-.9 3-.8 5.5.2 1 .4 2.2.3 2.6-.2.2-.3.7-.5 1-.5.5 0 .8-.2 1-.6.5-1 .9-1.1 2.2-1 1.8.3 3.4-1.2 2-2-.6-.3 0-1 1-1.2 1.6-.3 2.5-1.5 2.3-2.9-.1-.7 0-1 .1-1 .2 0 .3-.2.3-.5s-.1-.3-.7.3c-.4.4-.6.9-.5 1.1 0 .3 0 .4-.7.4a3 3 0 0 0-1.3.3c-1 .6-1 0 0-1 1.2-1 2-2.2 1.8-2.5-.1 0-.7.3-1.3 1-2.3 2.3-2.6 2.6-3 2.2-.3-.2-.5-.3-.6-.2l-.7 1c-.3.6-.7 1.1-.8 1.1l-.6.1c-.2 0-.4.3-.4.6-.1.6-1.2 1.7-1.7 1.7-.3 0-.2-.7.2-1.7.3-1-.4-.4-1 .7-.7 1.4-2.4 3-2.7 2.7-.4-.4 0-1 1-1.7.5-.3 1-.7 1-1 0-1 .5-2 1.2-2 .3 0 .6.2.6.4 0 .4 1.3 0 2-.7.8-.7.8-.7.3-1.2-.5-.6-.3-1.3.3-1 .2 0 .6 0 .8-.3.5-.5.9-.5.9.2 0 .3.1.4.4.3.5-.1.5-1 .1-1.3-.5-.3 0-.6.8-.5.5.1 1 0 1.6-.5 1.1-.8 2-1 2.5-.3.3.6.7.3.4-.3-.2-.7-1.4-.8-2.6-.1a5 5 0 0 1-2.1.5c-.7 0-1.1.2-1.6.7-.3.4-1 .9-1.4 1-.8.3-1 .5-1 1.5-.2 1.3-.9 1.8-1.8 1.3-.8-.4-1.5 0-1.8 1.3-.3.9-.6 1.5-1.4 2-.5.5-1 1-1 1.2 0 .4-.8 1.2-1.4 1.2-.7 0-.8-.4-.3-1.2l3.2-5.8c1.3-2.7 1.6-3 2.3-2.8 1.8.5 1.9.5 2.8-.6 1.1-1.2 1.1-1.3.4-1.7-.7-.3-2.2.3-2.9 1.3-.7 1-1.4.5-.8-.5l.8-1.9c.4-1.3 1-2.4 1.3-2.4l1.3-.6c.6-.4 1.4-.7 1.7-.7.7 0 1.8-.8 1.8-1.4 0-.2.6-.7 1.6-1.2 1.7-.9 2-1.5 1.2-2.3-.4-.5 0-1.3.8-1.3.7 0 1-1.4.5-2-.3-.3-.6-.4-.7-.3-.2 0 0 .3.2.5.7.5.6.8-.5 1.4-1.2.6-1.6 1.9-.8 2.4.6.5.3 1-.6 1-.5 0-.6-.1-.3-.5.3-.3.2-.3-.6-.2-1 .2-1-1 .2-2 .7-.6.7-.7.3-.9-.4-.2-.4-.4.5-1.4l1-1.3s.2-.1.4 0c.8.2 1.6-1 1-1.5-.3-.4-.4-.4-.5 0-.1.3-.4.5-.6.5-.2 0-.5.2-.7.5-.5.8-.7.7-.6-.3.5-3 .5-3.3.1-3.1-.2 0-.4.6-.5 1.3 0 1.2-.5 2-.5 1 0-.3-.3-.7-.6-.9l-.6-.4 1.1-1.1c1-1 1.2-1.1 1.8-.8.6.2.7.2.7-.3 0-1-1.7-.7-2.6.4-.4.6-.9 1-1 1-.7 0-1.3 1.5-1.2 3 0 1 0 1.3-.5 1.6-.8.4-1.6.1-1.3-.5l.3-3.8c0-3.7 0-3.6 2.3-5.7.4-.3.7-.9.7-1.2 0-.3.5-.9 1-1.4 1-.8 1-.9.7-1.5-.4-.7-.3-.8.6-1.8 1-1.2 1-1.7-.1-2.1-1-.4-1-.5-.2-1.5 1-1 .7-3.2-.2-3.2a.4.4 0 0 1-.4-.4c0-1.1-2-2-2.3-1-.3.5.1.8.4.4.2-.4.5-.2 1.5 1 1.2 1.3 1.5 2.2.8 2.7l-.4.7c0 .2-.1.4-.3.4-.6 0-.2 1 .6 1.3.9.3 1 .7.2 1.3-.3.3-.5.6-.5.8 0 .3-1.3 1.7-1.6 1.7-.6 0 .6-2 1.4-2.3.3-.2.2-.9 0-.9s-.3.1-.3.3c0 .3-1.1.9-1.3.7-.1-.1 0-.3.1-.5.2-.3.3-.5.2-.6-.7-.6-.1-2.4 1-3.1.2-.2.5-.6.5-.8 0-.4-.4-.4-.7 0-.4.6-.7.2-.7-1 0-.9 0-1.2-.3-1.1-.2 0-.3.5-.3 1.3.1 1.4 0 1.6-.7.7-.6-.7-.7-1-.1-1 .2 0 .4-.2.4-.4 0-.6-.3-.5-1.2.2-.8.7-1.1 2.9-.4 3.5.5.6.2 1-.6 1-.7-.1-1-.3-1.1-1-.5-1.6-.5-1.6-.8-1-.3 1-1.1.7-1.4-.4-.2-.8-.2-.9-.6-.4-.4.5-.4.5-.4 0 0-.7.7-1.6 1-1.3.5 1 1.2 1 1-.1l.1-2.7c.2-1.2.2-1.7 0-2-.3-.3-.4-.5-.2-.9.8-1.4.4-3.4-.6-3.4-.5 0-.5-.1-.4-1.1.2-1.6-.1-2.1-1.3-2.1-.8 0-1-.2-1.2-.7-.8-2-3.7-1.6-3.1.5 0 .4 0 .8-.4 1.1-.7.6-.7 1.2 0 2.1.6.8.6 1 0 1.6-.3.4-.3.5 0 .9.2.2.3.7.1 1.3l.1 1.4c.2.2.1.5-.3 1a2 2 0 0 0-.7 1.3c0 .8.4 1 .7.4.2-.5 2.7 2.2 2.6 2.7 0 .2 0 .4.3.5.5.2.5.7 0 .7l-.4.2c0 .2.2.3.4.3s.6.3.8.7c.6.8 0 .9-.8 0-.6-.4-.8-.5-1.2-.2-.7.4-1.5-.4-1.2-1.5.2-1 .4-1 1-.5.1.3.4.4.5.4.1 0 .2-.1.2-.4 0-.2-.2-.4-.4-.4-.3 0-.7-.3-1-1-.5-1-1.1-1.2-.7-.2v1c-.6.9.3 3.5 1.2 3.5.5 0 .5 1.5 0 1.6-.7.3.4 1.5 1.9 2 1 .4 1.4.7 1.4 1.2 0 .3.5.8 1.1 1.2l1.8 1.5 1 .8c.7 0 .7 1.1.5 4.7-.5 6.5-.6 6.7-1.2 7.2-.4.3-.4.5-.2 1 .4.8-.4 4.3-1 4.3-.3 0-.4-.3-.3-1.1.1-1.3-2.3-3-2.9-2-.6 1 .6 3.1 1.8 3.1 2 0 1.9.3-1.3 7.8-.3.7-1.4.2-1.4-.7 0-.3 0-.6-.2-.6-.7 0-1.4-2.7-.9-3.5.4-.6 1.2-.1 1 .7v.6c.6 0 .7-1.4.3-1.7-.6-.4-.6-.6 0-1.1.6-.6.4-1.2-.5-2-.5-.5-.8-1-.7-1.2.1-.3 0-.4-.2-.4-.6 0-.5 1.5 0 1.7.6.2.6 1.8.1 1.8-.1 0-.3.2-.4.5-.2.9-1.2 0-1.2-1.1 0-.4-.1-1-.3-1.3-.3-.5-.3-.7.6-2.5.4-.8.3-1.2-.2-.6-.7.9-1.1.5-1.3-1-.2-1.6-.2-1.7-.6-1.4-.5.2-.4 1.5 0 2.7.6 1.3.4 2-.3 1.3-.3-.3-.5-.7-.6-1-.1-.2-.4-.5-.6-.5-.6 0-.6-.3 0-.8.4-.2.6-.7.6-1.2 0-1.3 1.6-1.7 2.1-.6.3.6.3.6.3 0 0-.7-.4-1.1-1.3-1.1-.8 0-1.3.4-1.3 1.2l-.7 1.5c-.7 1-.6 2.7.2 2.7.5 0 .2 1.3-.5 1.6-.4.1-.7.4-.7.7 0 .3.3.8.7 1.2.4.3.7.9.7 1.2 0 .4.3.7 1 1 .6.4 1 .7 1 1-.1.3.3.4.5 0 .3-.4.5-.3 1.3.4 1.3 1.1.5 1.7-1.1.8-1-.5-1.2-.5-.8.1.1.3.7.6 1.3.7.6 0 1.4.5 2.2 1.2l1.1 1-.7 1.7c-.9 1.8-1.8 2.2-2 .8-.1-.6-.6-1-1.5-1.6-.7-.4-1.2-1-1.2-1.2 0-.3-.2-.6-.5-.9-.2-.2-.3-.6-.2-1 .2-.8-.8-1.7-1.8-1.7-.8 0-1.8.9-1.8 1.5 0 .2-.4.7-.8 1-.4.4-.6.7-.4.7.5 0 1.6-1.3 1.7-2 .1-.5.3-.6 1.3-.7 1.2 0 1.3.1 1.1 1.6 0 .3.2.6.4.8.6.5.5 2.2-.2 2.2a1 1 0 0 0-.7.4c-.4.3-.4.2-.4-1.5 0-1-.1-2-.3-2-.3-.4-.6.3-.5 1 .1.5 0 1-.3 1.3-.4.4-.5.7-.2 1.3.3.8-.2 2.4-.8 2.4-.2 0-.1.2.2.5 1.2 1.4.3 2.3-1 1.1-.9-.7-1.1-.8-1.4-.5-.6.5-.5.9 0 .7 1-.3 3.1 2.7 2.3 3.2-.5.3-1.7-.6-2-1.5-.7-1.5-3-1.4-3.4 0 0 .4-.4.6-1.1.7-1.6.3-2 .7-2 2.2 0 1.3 0 1.3-1 1.4-1.2.1-2.5 3-1.3 3 .1 0 .3.3.3.7 0 .4.1.7.3.7.4 0 .3-1-.1-1.3-.4-.2-.3-2.2.2-2.4 1.1-.4 1.4-.2 1.8 1.7.4 1.8.4 2.8-.1 2.8-.2 0-.3-.5-.3-1 0-1-.7-2.7-1-2.5 0 .1 0 .4.2.7.5 1 .3 1.5-.6 2.6-.6.6-1 1.1-.8 1.2 0 .1.4-.1.6-.4.7-1 1.1-.8 1.1.4 0 1.9-.6 2-2 .3-.7-.7-.4.2.2 1 .4.5.5 1 .5 2.1 0 1.6.2 2 .7 1.1l1.3-1.2c.6-.4 1-.8 1-1.2 0-.5.2-.7 1.2-1 .7-.2 1.3-.5 1.3-.7.1-.3-.4-.2-1.7.3-1.6.6-2.5.7-1.8.2.2-.1.4-.4.4-.6.1-.3 1.1-1.1 2.2-1.9 2.2-1.5 2.5-2.1.6-1-1.2.6-1.8.5-1.2-.2.2-.2.7-.6 1.2-.8l1-.7c0-.3-.5-.3-.7 0-.3.5-1 .3-1-.2 0-.6.9-1.5 2-2l.7-.7c0-.4-.3-.4-.7 0-.2.2-.4.2-.5.1-.2 0 0-.3.2-.5.5-.4 1-2.6.5-2.6-.1 0-.5.5-.7 1-.6 1.2-1.6 1.8-2 1.1-.4-.5-.3-.7.2-1 .3 0 .8-.5 1.3-1 1.3-1.4 2.5-1 2.2.8-.1.8 0 1 .2 1 .7 0 .5 1.4-.3 2-.4.4-.7.7-.6.9.3.2 1.5-1 1.7-1.8l-.1-1c-.8-.7.3-1 1.3-.2.3.2.6.7.6 1.1 0 .5.2 1 .6 1.4l.7.9a56 56 0 0 1-11.4 10.4c-.5.9-3.3 2.7-3.8 2.5-.3 0-.4 0-.4.3 0 .4-4.2 2.8-8 4.6-3 1.4-4.1 1.8-4.1 1.2 0-.5 1.4-1.8 2-1.8.6 0 1.5-.6 1.8-1 .1-.2.6-.4 1-.4 2 0 3.6-1.2 2.5-1.8-.9-.5-1.1-.4-.5 0 .7.5-.5 1.4-1.7 1.2-.7-.2-1.9.5-1.9 1.1 0 .2-.4.3-1 .3-.5 0-.9-.1-.9-.3l.2-.2a7 7 0 0 0 1.4-1.1c1.5-1.3 4.6-2.8 5-2.5.2.3 2.2-.3 2.7-.8.2-.1.6 0 1 .3.6.5 1.7.1 2.4-1 .6-.6-.3-3.2-1-2.9-.6.2-.7-.4-.2-1 .2-.2.3-.5.2-.5l.3-.3c.3-.3.4-.6.3-1-.2-.3-.3-.3-.5.3l-.5.8c-.1 0-.2.1-.2.3 0 .4-2 1.1-2.1.9-.2-.2.6-.9.9-.8.1 0 .4-.4.5-1 .5-1.6-.1-1.4-1.5.6-1.2 1.5-1.9 2-1.5 1.1.5-1.3.5-2 0-2s-.7.2-.7.8c0 1.5 0 1.6-.8 1.7-1.2.1-3.2 3.2-2.1 3.2.5 0 .5 0 0 .7-.8.9-1 .9-1-.2 0-1-.2-2.1-.4-2.5-.2-.2.3-.6 1-1 1.4-.6 2-1.1 2-1.8 0-.8 1-1.4 2.1-1.4.8 0 1.4-.2 2-.7.7-.7 2.2-.8 2.4-.3.1.2.3.3.4.2.4-.4-.5-1-1.4-1a2 2 0 0 0-1.6.6c-.5.6-.9.7-1.9.7-1.3 0-2.5.9-2.5 2 0 .6-.3.7-1.6.3-1-.2-1.3-.2-2 .3l-2.2.6c-1 .1-1.4.3-1.5.7 0 .3 0 .4.3.2l1.2-.2c.5 0 1.4-.3 2-.7 1.1-.6 2-.7 2.3-.2 0 .1 0 .2-.2.2-.7 0-1.8 1.1-1.8 1.7 0 .3-.2.5-.5.5s-.8.2-1.1.4c-.5.4-.7.4-1 .1-.2-.2-.2-.3 0-.4.5-.2.5-1.2.1-1.2l-.2.4-.3.9-.7 1.5-1.4 2.2-1.9 2.2c-.6.8-1 1.1-1.4 1-.5 0-.7.2-.9.9-.4 1.2-1.4 2.2-1.8 1.7-.3-.5 0-1.4.3-1.6.2 0 .3-.2.3-.3 0-.2-.3-.2-.6 0-.5.3-.5.5-.5 2 .1 2.4-.4 2.9-3.4 3.5-2.4.5-3.3.3-2.6-.4.4-.4.5-4.5 0-4.7l-.2-1.6c0-1.6-1-3.6-1.7-3.7l-7.7-.2c-2.3 0-2.9 1.2-2.8 6.3 0 2.2.1 3.8.3 4 1 1-.6 2.2-2.4 1.8-1.7-.4-1.7-.4-1.7-5 0-8.4-7.3-13-10.6-6.6-.9 1.6-.8 2.1.2 1.2 2.6-2.1 8.9 0 8.9 3 0 .4.2.7.4.8.5.1.5 1.2 0 1.2l-.9-1c-.6-1.1-2-2-3-2l-2.6-.5c-1.2-.3-2-.4-2.4-.2h-1.1c-.7-.3-1.4 1-1.4 2.5 0 2.7 2.3 4.4 8.4 6 2.3.5 3 .8 2.6 1.2a40.5 40.5 0 0 1-12.7-1.7c-1.3 0-5-1-10.3-3l-2.5-1V184c0-.8 0-1.6-.2-1.8v-.6c.2-.4-.9-2.5-2-3.8-.7-.6-1.3-1.6-1.6-2-.6-1.4-1.8-2.3-4.4-3.2a17 17 0 0 1-3.6-1.8c-1.2-1-1.3-1-.8.4l.4 1.7c0 1 1.7 3.9 2.7 4.6l2.4 2.2c.9.8 2.3 2 3.4 2.4 2.2 1.2 3.3 2.1 2.8 2.6a47.2 47.2 0 0 1-13-7.4 11 11 0 0 1-3.5-2.6c-.1-.2 0-.9.3-1.4a8 8 0 0 0 .3-5.3l-.4-1.5a6 6 0 0 0-.6-1.7c-.4-.5-.6-1.1-.6-1.3 0-.2-.2-.6-.4-.7-.2-.2-.4-.6-.4-.9 0-.3-.1-.5-.3-.5-.1 0-.3-.2-.3-.4 0-.5-2.3-2.6-4-3.5-1.6-1-1.5-.9-1.4-3.2 0-1.3 0-2-.2-2.2-.1 0-.3-.4-.3-.7 0-.7-.9-2.4-1.8-3.5a10 10 0 0 1-2.8-6c-.1-2.1-.4-2.7-.8-2-.5.8-.2-1.1.3-2.1l.5-1.5.4-1.3c.7-1.1.2-1.1-.8.1L36 137c-.9 1-2 3-2 3.7 0 .2-.2.6-.5.8-.2.2-.4.8-.4 2 0 1 0 1.8-.2 1.9-.4.2-.4 2 0 2.1 0 .1.3-.3.4-1 0-.5.3-1 .6-1.2.2 0 .3-.3.2-.8-.1-.3 0-.8.1-1.1.2-.4.2-.6 0-.6-.1 0-.3-.3-.3-.6 0-.4.2-.7.3-.7l.4-.6c.1-.4.4-1.2.8-1.8l.6-1.2v1c.1.6 0 1.1-.2 1.2l-.2 1.1c0 .8-.2 1-.4 1-.4 0-.4.2 0 .8.4 1 .5 1.4 0 1.5-.2.1-.5 1-.7 2.1-.2 1.1-.4 1.8-.5 1.7-.3-.8-.9-.3-.9.7 0 1.8-.8 1.4-1.7-.8-2.1-5.5-2.1-6-.5-7 1.5-1 2-2 1.4-2.8-.7-1-2.3.5-2 1.7.2.8.1.8-.5.8s-1-1.3-1.1-3.5c0-.2.6-.5 1.3-.8.7-.2 1.5-.6 1.7-.9l1.7-.7c1.4-.3 3.1-1.6 3.4-2.5 0-.3.4-.8.7-1 .9-1 1.3-2.4 1.3-4.3l.2-2c.2 0 .4-.6.5-1.2 0-.6.3-1.2.5-1.4 1-.8.4-1.3-.6-.5a6 6 0 0 1-1.4.7c-.9.2-2.6 2-3.1 3l-2 2.7c-2 2-2.1 2.4-2.7 5.3-.6 2.9-1.7 3.4-2 .9-.5-4.2-.5-7.5 0-7.6 3-1 5.7-3 7-5.4.5-1 1-2 1.3-2.3.7-.9 1.5-3.2 1.8-5.2l.5-2.6c.3-1.2 0-1.6-.5-.6a9 9 0 0 1-1.7 1.7 13.3 13.3 0 0 0-3.5 3.6c0 .2 0 .4-.2.4s-.3.1-.3.3l-.8 2c-.9 1.6-.9 2.3-.2 2.3.5 0 .5 0 .2.7l-.6 1.2c-.5 1.2-.8 1-.3-.3.4-1.4.4-1.6 0-1.6-.2 0-.5.3-.5.6-.1.6-.1.6-.4 0-.1-.3 0-.5.1-.5.5-.2.4-3 0-4.5-.6-1.7.2-3.2 2.7-5.3 2-1.7 5-5.5 5-6.3l.4-1.7a6 6 0 0 0 .6-2.8c0-.9.1-1.9.3-2.1.2-.5.1-.7-.1-.7zm50.2 2c-.2 0-.5.3-.7.7-.3.5 1 1.7 1.7 1.7.3 0 .1-.2-.3-.5-.6-.5-.7-.7-.6-1.3.1-.4 0-.6-.1-.5zm11.5.3c.2 0 .3.2.3.4s-.1.4-.3.4l-.2-.4c0-.2 0-.4.2-.4zm-63.3 0c.4 0 .4.2-.2.8a12 12 0 0 0-2.2 3c-.1.6-.6.9-.9.6-.4-.5 2.4-4.4 3.3-4.4zm124.1 0c.2 0 .7.4 1.1.8.5.5 1 .8 1.5.8l.7.1.2.6c0 .3 0 .3-.3.2-.5-.2-.7.3-.8 1.5 0 1.1-.4 1.4-.4.3a5 5 0 0 0-.8-2l-.9-1.7c0-.2-.1-.4-.3-.4-.2-.1-.2-.2 0-.2zm-59.9.5c.4 0 1 1.5.8 2-.2.7-.6.5-.6-.4 0-.4-.1-.8-.3-.8-.1 0-.2-.1-.2-.4 0-.2.1-.4.3-.4zm59.3.3c.1.4.4.8.7 1.1.3.3.5.7.4.8-.1.2 0 .4.1.7.5.6.2.9-.5.5l-1.2-.5c-.5-.2-.6-.7 0-.7.3 0 .4-.3.4-1.2l.1-.7zm-75.3.8c-.1 0-.2.1 0 .3l.2.2.1-.2c0-.2-.1-.3-.3-.3zm10 .3c.6 0 2.4.6 2.5 1 .2.5-.6.4-1-.1-.2-.3-.5-.4-.6-.3-.5.3-.4 1 .1 1 .4.1.4.2 0 .3-.3.1-.5 0-.9-.8l-.3-1h.2zm-2 0l.1.1.3.3-.3.1c-.1 0-.3-.1-.3-.3 0 0 .1-.2.2-.1zm-12.3.5l.6.1.1.6c.3.6-.2.5-.8-.2-.5-.5-.5-.5 0-.5zm-43.7.1s-.1.9-.6 2l-.4 1.1c0 .2-.1.5-.4.7-.4.5-.5.5-.7.2-.4-.3-.2-1 .4-1.7.4-.4.9-1 1.1-1.5.3-.6.5-.8.6-.8zm56.6 1h.3c0 .2-.1.2-.4.2-.3 0-.4 0-.2-.1h.3zm-1 .3l.2.4c0 .9.8 1.8 1.4 1.6.7-.2.7.2 0 .6-.3.2-.5.6-.5.9 0 .3-.2.5-.3.5l-.8.5c-.3.4-.8.5-1.5.5h-1v-3.7c-.2-.2-.1-.3.2-.3.7 0 2-.6 2-.8 0-.2.1-.2.3-.2zm-13.6.2l1.2.2c.4 0 .8.3.8.4 0 .3-.8.3-1.7-.2-.6-.2-.6-.4-.3-.4zm81.4.6c.3 0 1.4 1 1.4 1.4 0 0 0 .2-.2.2v-.3c0-.1-.4-.4-.8-.5-.6-.3-.9-.8-.4-.8zm-127.3 0c.4 0 .5 1.4 0 1.9s-1 .6-1.2.2c-.2-.3.6-2 1-2h.2zm77 .3h.3c.2.1 0 .2-.3.2-.4 0-.5-.1-.4-.2h.4zm54.5.1h.5c1 .3 1.2 1.2.3 1.6-.3.1-.7.6-.8 1-.3 1-1 0-.8-1 .3-1.3.4-1.6.8-1.6zm-66.9.1c.2 0 .3.1.3.3 0 .1-.2.2-.5.2-.2 0-.3 0-.2-.2 0-.2.3-.3.4-.3zm1.8 0l.4.2c.3.3.1.3-.6.3-.9 0-.9 0-.3-.3l.5-.2zm2.3 0l.3.2c.3.4-.1.6-.6.4-.3-.2-.3-.3 0-.5h.3zm-20 .7l.3.3c.4.5 0 .8-.8.7-.7-.1-.7-.4 0-.8l.4-.2zm78.5.2s.2 0 .3.2a.3.3 0 0 1-.6.3.3.3 0 0 1 .3-.5zm2 .5c.1 0 .3.1.3.3 0 .3-.2.5-.6.5-.6 0-.5-.7.1-.8h.1zm-127.7.2c.2 0 .4.1.4.3 0 .1-.2.3-.4.3-.3 0-.5-.2-.5-.3 0-.2.2-.3.5-.3zm63 0l.3.1c0 .1 0 .2-.4.2-.3 0-.3-.1-.1-.2h.3zm-65.8.3c.3 0 0 1.9-.6 2.6-.6 1-1 .8-.7-.5.1-1 .8-2.1 1.3-2.1zm52.4.4c.5 0 1.1.3 1.1.8 0 .7-.1.8-.4.4 0-.1-.3-.2-.5-.1-.4.2-1-.5-.8-.9.2-.2.4-.2.6-.2zm23 .1l-.1.6c-.4.5-.8.7-.8.3 0-.3.6-.9.9-.9zm-6 0v.5c0 .6-.1.8-.4.4l.1-.6.2-.2zm-18.4.3c.4 0 .4.4.1 1.2 0 .2-.3.4-.4.2-.3-.3-.2-1.4.3-1.4zm-49 0v.3c0 .1 0 .2-.2.2s-.2 0-.1-.2c0-.2.2-.3.3-.3zm127 .3c.2 0 .6.3 1 .6.5.4 1 .7 1.2.7.5 0 .5 1 0 1.4-.6.4-.5 1 .3 1.5.6.6.7.7.4 1.5-.4 1.2-.8 1.5-.8.7 0-.4-.2-1-.4-1.2a2 2 0 0 1-.3-1.3c.1-.6 0-1-.3-1.2l-.4-.7-.4-.7c-.4-.3-.6-1.3-.2-1.3zm-54.2.8c.1 0 .3 0 .3.2s-.2.3-.3.3a.3.3 0 0 1-.3-.3c0-.1.1-.2.3-.2zm-73.5 0c.5 0 .2.5-.6 1.3-.9.9-1.6 1.1-1 .4.7-1 1.4-1.7 1.6-1.7zm52.8 0c.2 0 .5.2.6.4.2.5.1.5-.5 0-.5-.4-.5-.4-.1-.4zm79.3.3l.6.2c.2 0 .2.4.1.6-.2.6-.5.6-.7 0-.3-.5-.2-.9 0-.8zm-75.7 0v.6c0 .2-.3.4-.5.4-.4 0-.4 0 0-.5.2-.3.4-.4.5-.4zm70.8.3l.1.6c0 .4.2.7.4.8.3.1.4.5.4 1 0 1-.3 1-.8 0-.2-.3-.5-.6-.8-.6-.4 0-.4 0 0-1 .3-.6.5-.9.7-.8zM30.6 111l.1.2c0 .2-.1.3-.3.3-.1 0-.2-.1 0-.3l.2-.2zm135.7 0h.1l.3.4-.3.1c-.1 0-.2-.1-.2-.3 0-.1 0-.2.1-.1zm-60 .1c-.2 0-.3.4 0 .8.3.3.5.3.7.1.2-.2.2-.4-.2-.7l-.5-.2zm-15.3.1c.2 0 .3.1.3.3 0 .1-.1.3-.3.3a.3.3 0 0 1-.2-.3c0-.2 0-.3.2-.3zm-1.1.1c.4.3.4.5-.1.5-.2 0-.3-.2-.3-.3l.4-.2zm-60 .7l.2.1v1.1c-.3 1.2-1 1.3-1 .2 0-.6.5-1.4.8-1.4zm81.6.6c.1 0 .3.2.3.4s-.2.4-.3.4c-.2 0-.3-.2-.3-.4s.1-.4.3-.4zm-1 .2l.2.3c0 .2-.1.3-.3.3a.3.3 0 0 1-.3-.3l.3-.3zm-73.8.6c.4 0 .2.5-.8 1.9-.5.7-1.2 1.3-1.5 1.3-.6 0-.6-.7 0-1 .4 0 .6-.2.6-.3 0-.4 1.4-2 1.7-2zm67.5.3c-.1 0-.2 0-.2.2s.1.3.4.3c.2 0 .3-.1.2-.3l-.4-.2zm-76.5 1.1v.4c0 .3-.1.7-.4.9-.2.2-.4.7-.4 1.3a3 3 0 0 1-.5 1.6l-.6.6c-.5 0-.4-2 0-2.3.2-.1.3-.4.3-.7 0-.2.4-.8.8-1.2l.8-.6zm9.5 0c.3 0 .5.6.3.8-.3.3-.6.2-.6-.2l.2-.5h.1zm133 .2c.1 0 .3.3.4.7.3 1 0 1.4-.4.6-.3-1-.4-1.3 0-1.3zm-141.3.6c.2 0 .2.1 0 .6l.1 1c.4.2.7 3.7.4 3.7-.2 0-.3.2-.3.3 0 .2-.2.5-.5.7a2 2 0 0 1-.7.4c-.3 0-.2-.5.1-.7.2-.1.2-.3 0-.5l-.4-1-.2-.7.7.8c.5.6.7.6.8.3 0-.2 0-.5-.2-.7l-.3-.4-.1-.5c-.2-.2-.2-.4-.1-.4s.2-.6.2-1.4c0-1 .1-1.4.4-1.5zm135.7.3c.2 0 .3.3.3.5 0 .3.1.4.5.3.8-.2 1.6.4 1.6 1.3 0 .7-.1.8-.6.7-.3-.1-.7 0-1 .4-.6.5-1 .3-.7-.4v-.8c-.4-.5-.4-2-.1-2zm-57 .7c.2 0 .4.1.4.3 0 .1-.1.3-.3.3l-.4-.3c0-.2 0-.3.3-.3zm1 0s.2.1.2.3c0 .1-.1.3-.3.3a.3.3 0 0 1-.2-.3c0-.2 0-.3.2-.3zm-74.9.3c.4 0 .4 1.5 0 1.7l-.5 1c-.1.5-.4 1-.6 1-.2 0-.3 0-.2-.2a79 79 0 0 0 1.3-3.5zm2.3.7v.4c-.1 1-.7 2.1-1 2.1-.1 0-.3.2-.3.4s0 .4-.2.4-.3 0-.3-.2.1-.4.3-.5l.2-.6c0-.3.3-.8.6-1l.6-1zm134.6.1c.2 0 .3.6.3 1.7 0 2.1-.1 2.2-.9.5-.6-1.2-.6-1.2 0-1.7.2-.3.5-.5.6-.5zm-2.4.3c.4 0 1 .6.7.8-.3.3.3 1.7.8 2l.2.4c0 .5-.4.2-1.3-.7-.8-1-1.1-2-.6-2.4h.2zm-5.9.6c.5 0 1.8 1.4 2 2.4.3.8.2.8-1 .3-1.9-1-2-1.2-1.6-1.7l.4-.8c0-.2 0-.2.2-.2zm4.7 1.4h.3c.8.3 1.3 1.7 1.3 3.9 0 1.3-.1 1.9-.4 1.9-.6 0-1-.5-1.2-1.6-.1-.7-.3-1-.6-1-.6 0-1-1.7-.5-2.1.3-.3.6-.1 1.2 1 .2.5.4.7.4.4l-.5-1.2c-.5-.8-.5-1.3 0-1.3zm-141 .3c.1 0 .1.4-.1 1-.2.4-.4.7-.6.7-.3 0-.3-.2.2-1.2.2-.4.4-.6.5-.5zm7.7 1.2c.2 0 .3.3.1 1-.1.5-.3.8-.6.8s-.4-.1-.2-.7c.2-.7.5-1.1.7-1.1zm139.8 0c.1 0 .2 0 .1.3 0 .2-.4.5-.9.8-1.2.7-1.3.6-.5-.3.5-.5 1-.8 1.3-.8zm-146.5 0l.1.2c.1.3.3.6.5.7.3.2.3.5.1 1.3-.1.5-.4 1-.6 1-.5 0-.7-1-.4-1.7l.3-1v-.4zm138 .5c.2 0 .3.2.3.5 0 .6-.2.7-.6.4-.3-.3-.2-.9.2-.9zm-4.5.5c-1 0-2 1-2 2.3 0 .8-.2 1.6-.3 1.9-.4.7-.2 1.4.7 2.5 1 1 1 1.1.3 2.3l-.4 1 1 .8c.7.6 1 1 .8 1.3-.1.6.3 1 1.3 1.3.4 0 1 .4 1.1.8.3.4.6.6.8.6.2 0 .2 0 0-.2l-.6-1c-.3-.5-.7-.8-1.2-.9-.6 0-.7-.1-.6-.7.1-.5 0-.8-1-1.5-.9-.9-1-1-.6-1.4.7-.6.3-3.1-.4-3.1-.3 0-.8-1.1-.7-1.4.3-.4 2.3 1 2.3 1.7 0 .2.2.5.3.5.2 0 .3.1.2.3 0 .2 0 .7.4 1 .9 1.2.6 1.7-.4 1s-1.1 0-.1.7l1.3.8c.3.1.5.5.5.9 0 .3.1.7.3.7.4 0 1.4 2.2 1 2.4-.2.1 0 .4.7.7 1.4.8 1.6.8 1.2 0-.2-.3-.2-.7 0-1.3.2-.6.2-1 0-1.2-.2-.3-.2-.5.2-1 .5-1 .1-2-.9-2.2-.6-.2-1-1.3-.4-1.5.7-.3.5-2.4-.3-2.6-.9-.2-1.2-.7-1.1-1.8 0-.7-1.4-2.6-2-2.6-.3 0 0 .9.5 1.3.5.5.5.6.1 1-.6.6-.8.5-1.4-1-.8-1.7-.8-2.2 0-1.8.6.3 1 0 .5-.3a2 2 0 0 0-1.1-.3zm-130.8 0c.6 0 .6.4-.1 2-.8 1.6-1.2 1.7-1 .2 0-1.1.6-2.2 1.1-2.2zm140.5.3c.1 0 .3.5.3 1 0 1.3 0 1.3-.6.8-.3-.5-.1-1.8.3-1.8zm-132 .5c.4 0 .1.9-.4 1.2-.2.1-.4.4-.4.7 0 .7-1 1.5-1.3 1-.2-.2-.3 0-.3.7 0 .9 0 1.1-.5 1.2-.4.1-.6.3-.5.7.2.6 0 1.3-.3 1.3-.2 0-.3-.2-.3-.5 0-.4 0-.4-.6.2-.4.4-.5.6-.3.7.4.2.5 1.2.1 1.2-.1 0-.3-.2-.3-.4 0-.6-.9-.4-1 .2 0 .3 0 .5.4.5s.4 0 0 .5c-.6.6-.8.6-1 .4-.4-.4-.3-1.7 0-2a7 7 0 0 0 1.2-1.1c.4-.6 1-1.1 1.2-1.2.3-.1.6-.4.6-.7l.4-.8c.2-.2.4-.5.4-.8 0-.3.2-.5.4-.5s.4-.3.4-.5c0-.6 1.4-2 2-2zm-5.8.4h.1c.1.1 0 .4-.3.6-.6.4-1 .5-1 .2s.9-.8 1.2-.8zm127.3 0c.2 0 .3.3.3.9 0 .5 0 1 .2 1 .2.1.3.4.3.7 0 .3-.1.5-.2.5-.4 0-1-.6-.7-.8 0-.1 0-.5-.3-.8-.6-.8-.5-1.2.1-1.4h.3zm-134.2.2c.2 0 .4.2.4.4 0 .4-.4.5-.7.2-.3-.3-.2-.6.3-.6zm144 1.3c.3 0 .4.2.4.6l-.2.6c-.4.2-.7-.5-.5-.9.1-.2.3-.2.4-.3zm-131.4 1.2l.3.1c.3.6-.3 2.6-.8 2.6-.3 0-.4 0-.3.5.1.3 0 .8-.5 1.4l-.7 1.1c0 .3-1.1 1.2-1.4 1 0 0-.4.2-.6.5-.2.3-.7.6-1 .8-1.2.4-1.2.3-.5-.5l1.3-1.4c.4-.4.7-.6 1.1-.5.6.2.7 0 .3-.5-.2-.2 0-.5.5-1.2.5-.5.8-1 .8-1.2 0-.2.2-.4.3-.4.2 0 .3-.2.3-.5 0-.8.5-1.8 1-1.8zm123.2.4l.3.3-.1.3-.3-.3v-.3zm1.7.2l.3.4c.2.4.7.8 1.2 1 1 .5 1 .6 0 1.2-.6.4-.7.6-.6 1.6.1.6 0 1-.1 1-.3 0-.5-.5-.6-1.7a2 2 0 0 0-.3-1c-.3-.2-.3-.2 0-.2s.6-.2.7-.4c.1-.2.1-.2 0-.1-.4.4-.9-.3-.7-1.2l.1-.6zm-140.9 2.8c.3 0 1.8 1.8 1.7 2.2l.2.4c.2.2.3.9.4 1.5 0 1 0 1.3-.3 1.4-.5.2-.8-.3-.6-1 .1-.4 0-1-.3-1.4-.3-.4-.6-1.1-.6-1.5 0-.4-.1-.9-.4-1-.2-.1-.3-.3-.1-.5zm153.6.7c-.1 0 .2.6.7 1.2 1 1 1.3 1.3 1.3.8 0-.4-1.6-2-2-2zm-4.1 1.4c.3 0 .7.7.7 1.6 0 .3.2.6.3.8.4.4.1 2.2-.3 2.2-.1 0-.2.3-.1.6l-.1.6c-.4.3-.4-1.3 0-2 .2-.3 0-.6-.3-1-.6-.7-.9-2.3-.4-2.8h.2zm-6.7.5c.2 0 .4 0 .7.3 1 .5 1 1 .4 1.4-.4.4-.5 1.5-.1 1.8.1 0 .2.2.1.4-.5.7-1.1-.2-1.4-2-.1-1.3 0-1.9.3-1.9zm-143.8.8v.7c.2-.2.2-.5 0-.7zm9.9.1c.1 0 .2.1.2.4 0 .2 0 .5-.2.5-.3.2-.6-.5-.4-.7l.4-.2zm26.4 1c.1 0 .2.2.1.4l-.3.2-.1-.2c0-.2.1-.3.3-.3zm1 0c.7 0 .7.2.2.4H58c0-.2.1-.3.4-.3zm24.2.5h.1c.4.2.3.4-.2.4-.2 0-.3-.1-.2-.3 0 0 .2-.2.3-.1zm89 .5c.1 0 .2.1.2.3 0 .2-.1.4-.3.4-.1 0-.2-.1-.2-.3 0 0 0-.3.2-.4h.1zm-1.5 1c.2 0 .4.1.4.4 0 .2-.2.4-.5.4-.2 0-.3-.2-.3-.3.1-.3.3-.4.4-.5zm-107.6 1.3c.1 0 .3.1.3.3l-.3.3a.3.3 0 0 1-.3-.3c0-.2.1-.3.3-.3zm46.5.3c.3 0 .6 0 .7.3.4.5 0 1.1-.5.8-.3-.3-.6-.3-1.3 0-1 .5-2.7.8-3 .6-.3-.3.2-.6 1-.6.4 0 .8-.2.9-.3 0-.2.5-.3 1-.2.5 0 .7 0 .7-.3 0-.2.3-.3.5-.3zm61.3 0c.2 0 .3.5 0 1.5-.1.7-.7.9-1 .4-.1-.2 0-.8.4-1.3l.6-.6zm-147.8 0l.9 1.6c.4 1 1 2 1.4 2.3.3.2.5.6.5.7 0 .5-.5.2-1.2-.6-.3-.5-.7-1-.7-1.2 0-.2-.1-.4-.3-.4-.4 0-.9-2.1-.6-2.4zm137.9.3h-.2c-.6 0-.7 0-.4.1l.8.4c.4.4.4.3.4-.1 0-.3-.2-.4-.6-.4zm11.2.5l.2.4c0 .4-.4.7-.6.5-.2-.2 0-1 .4-1zm-116 .3c.3 0 .4 0 .3.2-.1.2-.3.3-.4.3-.2 0-.3-.1-.3-.3l.4-.2zm14.8.3c.4 0 .7.1.7.5 0 .3-.3.6-1 .8l-2 .8c-1.3.7-2.6 1-3 .9-.3-.1-.5 0-.5.2 0 .1-.1.2-.3.1-.2 0-.5 0-.7.2l-1.3.4a3 3 0 0 0-1.3.3c-.4.5-1.7.4-1.7-.1 0-.2.2-.4.6-.4a2 2 0 0 0 1-.3c.2-.3.3-.3.5 0 .1.2.3.2.7-.2.2-.3.6-.5.7-.4.1 0 .4 0 .7-.2l1.1-.5c.4-.2.7-.2.9-.1.1 0 .2 0 .2-.2 0-.1.2-.3.4-.3s.5-.1.7-.4c.2-.2.5-.3.7-.3.2.1.7 0 1.2-.3a5 5 0 0 1 1.7-.5zm91 .3v.8c.2-.2.2-.5 0-.7zm7.4.5c.2 0 .5.2.6.8.1.5 0 .8-.3 1.2-.3.3-.5.6-.4 1 .1.2 0 .7-.1 1-.4.7-1.5.7-1.2 0l.4-1.7c.2-1.4.6-2.3 1-2.3zm-131.7.2l.2 2c0 1.4 0 1.8-.3 1.8-.4 0-.5-3 0-3.6l.1-.2zm18.4 0l.3.2c.2.2.2.3 0 .5-.2 0-.4 0-.5-.2-.1-.2 0-.4.1-.5h.1zm85.2.1h.1l.3.3-.3.1c-.1 0-.2 0-.2-.2l.1-.2zm29.9 0v.6l-.1-.3v-.3zm2.4.6c.2 0 .2.3-.5.8-.4.3-.7.7-.7.8 0 .1-.2.4-.5.6-1.6 1.2-.9-.4.8-1.8.4-.3.7-.4.9-.4zm-50.5.2c.8 0 1 .6.3.6-.6 0-1.4.4-2 .9-.4.3-.5.3-1 0-.6-.7-1.1-.6-.9 0 .1.4 0 .6-.3.5-1.4 0-2.8.1-3.2.5-.5.5-2.1.7-2.5.4-.2-.3 0-.6.5-.6.3 0 .5 0 .5-.2 0-.1.6-.3 1.4-.4.8 0 1.5-.3 1.5-.4 0-.2.5-.3 1-.3l.7-.2c0-.3 2.8-.9 4-.8zm1.8.2l.1.3c0 .1-.1.2-.3.2-.1 0-.2-.1 0-.2 0-.2.1-.3.2-.3zm-31 .3l.1.2c0 .2 0 .3-.2.3s-.2-.1-.2-.3l.3-.2zm14.8 0c.1 0 .2 0 .2.2s-.2.3-.3.3c-.2 0-.2-.1-.1-.3l.2-.2zm62.1.1c.2.1 0 .4 0 .7-.4.5-.8.7-.8.3 0-.3.6-1 .8-1zm-13.2.3l.8.9c.4.5.8 1.1.8 1.4l.5 1.7c.4.9.5 1.2.2 1.2-.4 0-1-.5-1-1 0-.2-.2-.3-.5-.3s-.5.1-.5.4c0 .2-.1.4-.3.4v-.6c0-.5-.1-.8-.7-1-.7-.4-.9-1.3-.2-1.6.2 0 .5-.5.7-.8l.2-.7zm-64.6 1.2c.1 0 .2 0 .2.2s0 .3-.2.3a.3.3 0 0 1-.3-.3c0-.1.1-.2.3-.2zm-23.5.2c.2 0 .3.2.3.3 0 .2-.1.3-.3.3a.3.3 0 0 1-.2-.3l.2-.3zm43.4.5c.8 0 .5.5-.6.7-.7 0-1.4.2-1.6.3h-.5c0-.3 1.3-.9 2.3-1h.4zm-75.2.5c.5 0 .5 1.3-.3 2.1a3 3 0 0 0-.7 1l-.4.5c-.3.3-.4.3-.4 0s.2-.6.4-.8c.2-.2.4-.6.4-1s.2-.6.4-.6c.5 0 .5-.4 0-.6-.2-.1-.2-.2.1-.4.2-.2.4-.2.5-.2zm37.1 1h.1-.3.2zM38 147.1c.3 0 .9 1.7.9 2.5l.3 2.8c.4 2 .4 2.2 0 2.3-.3 0-.6.4-.7.7 0 .5 0 .5-.3 0-.2-.3-.1-1 .3-3.8v-1.2c-.4 0-.7-2.9-.5-3.3zm1.6.1c.2 0 .7.6 1.1 1.3l1 1.6c.6.5.5 1.5 0 2-.7.6-1 .6-1.5 0-.3-.4-.1-1.2.3-1h.3c0-.2-.2-.4-.5-.5-.2 0-.3-.4-.3-.8 0-.3-.1-1-.4-1.3-.6-.9-.6-1.3 0-1.3zm-2.7 1c.3 0 .4.3.4 1 0 .6.1 1 .4 1.1.3.2.4 2.1 0 2.5-.2.2-.7-.2-.7-.7 0-1-1.2-1.8-1.7-1.2-.5.6-.6 1.7-.2 2.2.2.1.3.4.2.5-.4.6-1.5.2-1.5-.4a2 2 0 0 0-.4-1c-.7-.9-.5-1.4.5-2 .5-.2 1.4-.8 1.9-1.3.5-.4.8-.7 1-.7zm124.9.2l.2.8c.1.2.3.4.5.3.4-.3.3-.6-.3-1a1 1 0 0 0-.4-.1zm-138.9.4c.2 0 .6.2.9.5.2.3.8.7 1.3.9.5.2 1.3 1 2 1.8.6.8 1.4 1.5 1.9 1.7l.7.5.7 1c.4.4.7 1 .7 1.1 0 .2.1.3.2.3.2 0 .3.2.3.4 0 1-2.3-.7-2.5-1.8a2 2 0 0 0-1-1c-1-.3-1.9-1.3-1.7-1.8.1-.2 0-.3-.3-.3s-.3-.2-.2-.5c.1-.3 0-.4-.3-.3-.2.1-.8-.3-1.7-1.2-.7-.7-1.1-1.3-1-1.3zm130.5 3c-.4 0-.6.3-.4.7.2.5.6.4.6-.2 0-.3-.1-.5-.2-.5zm-111 .4c.2 0 .2.3.2 1s0 1.4.2 1.5v.4c-.4.2-1-.8-.8-1.2l-.1-.4c-.2 0-.3 0-.3.3 0 .6-.8.7-1 .1-.2-.6 0-1 .6-.9.2.1.4 0 .4-.1 0-.2.2-.4.5-.6h.3zm-18.5.4c-.2 0-.3.1-.2.3l.5.2c.3 0 .4 0 .3-.2-.1-.2-.4-.3-.6-.3zm128.2.4s-.4.1-.6.4c-.3.3-.7.5-.9.5-.5 0-.2 1.3.5 2 .6.7 1.4 1 1.4.6 0-.3-.7-1-1-1-.8 0-.8-.6 0-1.5.5-.5.8-1 .7-1zm-115.3.3c.4 0 .4.6.4 2 0 1.1.2 2 .3 2.1l.4.8a7 7 0 0 0 1.4 1.8c.8.8 1.2 1.4 1.2 1.9 0 1.8-2.4-.7-4.6-5l-.8-1.2c-.5-.3-.2-1.1.7-1.8.5-.4.8-.6 1-.6zm119.8.8l.1.6.4.6c.5 0 .2 1-.4 1.6-.6.4-.7.7-.6 1.2.2.5 0 .8-.6 1.3-1.6 1.3-2 1-1-.7.6-1.1.6-1.3.3-1.5-.7-.3-.2-1.6 1-2.4l.8-.7zm19.4.6h.2c0 .6-1 1.4-1.8 1.4s-2.3 1.4-2 2c0 .2.2.3.3.3.2-.1.3 0 .3.3 0 .6-1.4 1-2.5.8-.5-.2-.8 0-1.4.6-.5.5-1 .8-1.4.8-.3 0-.7.3-.8.6-.4.5-.8.6-2.3.3-2.1-.3.4-2.3 3.3-2.6 2.7-.2 5.3-1.4 3-1.4-.4 0-.9 0-.9.2l-.8.2h-.9l.8-.5 1-.8a6 6 0 0 1 2.9-1.6 9 9 0 0 0 2-.4l1-.2zm-134.7.9c.3 0 .6 1.5.4 1.9-.3.5-.5.2-.6-.9 0-.6 0-1 .2-1zm-1.7 0c.3 0 .6 1 .8 2.5.1 2 .1 2-1 1-.9-.8-1-1.4-.4-1.4.3 0 .4-.2.3-1l.1-1h.2zm-1.1.5c.2 0 .3.3.3.7 0 .6-.2.8-.5.5-.4-.4-.2-1.2.2-1.2zm121 0c.6 0 1.1.3 1.1.6a30.5 30.5 0 0 1-5.9 8c-.6 0-.7-.8 0-1.2l.6-1c.1-.4.6-1 1-1.3 1.8-1.2 2-2 1-2.8l-.7-.6.7-.8c.4-.5 1.4-.8 2.2-.8zm-4 .3h-.2v.5c.2.3.3.3.4 0 0-.3 0-.5-.2-.5zM28 157.5l.7.4c.4.4.7.6 1 .5.4-.1 1 0 1.5.2l1.2.5c.7.3-.8.2-2.5-.1-1-.2-1.7-.5-1.9-.8-.2-.4-.2-.7 0-.7zm16 .2l.8.5c.3.3.5.6.4.7-.2 0-.6-.2-.9-.5-.4-.5-.5-.7-.3-.7zm-1.3.6l.3.2c.2.2.5.6.5.9 0 .3.2.7.5 1 .6.7.7 1.2.1 1-.2-.1-.4 0-.4.2s0 .4-.2.4-.3-.3-.3-.7c0-.4-.2-1-.4-1.3-.5-.7-.5-1.6-.1-1.7zm114.5.6c.1 0 .2.1.2.4 0 .4-.4.8-1 1.3-.7.3-1.3 1-1.4 1.4-.4 1-1.1 1.1-1.1.2 0-.8.1-1 1.6-2a1198.6 1198.6 0 0 0 1.7-1.3zm-111.4.2c.5 0 .8.7.4 1.2-.4.4-.8.5-1 .1-.2-.4.1-1.3.6-1.3zm.4 1.6c.2 0 .5.3.5.5s-.1.3-.3.3c-.3 0-.6-.5-.4-.7 0 0 .1-.1.2 0zm1.5.3c.1 0 .3.1.5.4.4.6.5 1.3.1 1-.1 0-.3 0-.3.2 0 .7-.7.8-1 .3-.3-.6-.1-.9.4-.7.4.1.4 0 .3-.5v-.7zm-5.7.2c.2 0 .5.4.8 1.2l.7 1.2.2.4c0 .2.3.6.6.8.2.3.6 1 .6 1.6.4 2.2 1.3 3.3 4.2 5 1.1.8 1.7 1.5 1.5 2-.4.6-5.1-3.5-8-7.2l-1.6-1.8c-.5-.5-.4-1 .2-1.8l.5-1c0-.2.2-.4.3-.4zm103.4.7c.2 0 .3.3.6 1.3.2.5.5 1 .7 1 .2 0 .2 0 0 .3-.2.2-.4.8-.4 1.3 0 .7 0 1-.3 1-.5 0-.9-1.1-.6-1.6 0-.1 0-.2-.2-.2-.1 0-.2-.2-.1-.4l-.1-1.3c-.2-.7-.1-1 .1-1.3.1 0 .2-.2.3-.1zm-100.4.2c.2 0 .4.2.5.6 0 .4.4 1 .7 1.2.3.3.5.8.4 1-.1.2 0 .3 0 .2.2 0 .6.3 1 .8 1 1.3 1 2-.1 1-.3-.2-.6-.3-.8-.2-.4.3-.3.7.1.7.3 0 .4.3.4.7 0 .7 2 2.4 2.5 2.1l.3.3c.3.8-.9.5-2-.6a1 1 0 0 0-.7-.3.3.3 0 0 1-.3-.4l-.5-.8c-.3-.3-.4-.8-.4-1.4 0-.6 0-1-.4-1.4a1 1 0 0 1-.4-1c0-.2 0-.4-.2-.4s-.3-.2-.3-.4c0-.3-.2-.4-.4-.4-1 0-.8-.9.3-1.2h.3zm3.8 1.7c.2 0 .3.1.2.4-.1.3 0 .5.4.6.4.1.5.3.4.7-.1.4 0 .6.2.6.5 0 1.1 1.7 1 2.6 0 .4.1.8.3.9.3.2.3.3 0 .5-.2.2-.3.1-.4-.5-.1-.4-.4-1-.6-1.1-.2-.2-.4-.5-.4-.8l-.4-.8-1-1.7-.6-1.3h.6l.3-.1zm-20 .8a10 10 0 0 1 3.4 2c.2.3 1.1.9 2 1.3 1 .5 1.7 1 1.8 1.3.4.9-1.6-.2-4.8-2.6l-2-1.5c-.3-.2-.5-.4-.4-.5zm130.8.9a4 4 0 0 0-2.2.8l-1 .8.7.4c1.4 1 3.5 0 3.5-1.6 0-.3-.4-.5-1-.4zm-10.3.3c-.3 0-.2.3.4.7.9.6.8 1-.2 1.6-.7.4-.9.7-1 1.5v.9l.3-.9c.1-.5.4-1 .7-1 1.6-.6 1.9-2 .6-2.5l-.8-.3zm-120.5 0c.4 0 1.5 1.1 1.5 1.7 0 .3.2.4.5.4s.6.2.8.4l.2.5c-.2 0-.1.1 0 .4.3.2.6.3 1 .2.2 0 .6 0 1 .4.3.3.7.6.9.6.7 0 1.2.3 1.2.7 0 .2.3.3.6.3l1.7.3 2.6.3c1.4 0 1.4 0 .8.4-1.4.8-4.5.5-6-.6a24 24 0 0 0-3.2-1.7c-2-1-3-1.8-3-2.5 0-.3-.1-.8-.4-1-.2-.3-.4-.6-.3-.7h.1zm19.7 2c.3-.1.3 0 .5.3l.3.9c.2.5-.6.3-1.2-.3s-.7-.6-.2-.8l.6-.2zm118.8.2c.5 0 .9 0 1 .2 0 .2.6.3 1.1.2 2.3-.2 3.3 1.2 1.5 2.1-.7.4-1 .8-1 1.1 0 .9-.3 1-.7.4-.2-.4-.6-.6-1.4-.6h-1.1l1.3-.5c1.5-.4 2.8-1.2 2.5-1.4l-2.5.6c-2.8 1-3.6 1-2.3.2 1.4-.9 1.7-1.3 1.4-1.6-.1-.1-.5 0-.9.3-1 .7-1.5.9-2.1.5-.3-.2-.6-.2-.7-.1-.1.1 0 .3.1.4.6.4-.4 1.6-1.3 1.6-.4 0-1.4.2-2.3.5-2.4.5-2.6.3-.8-1 .9-.6 1-1.3.3-1-.2.1-.4 0-.4 0 0-.2.3-.4.7-.5.6-.2 2 .8 1.8 1.3 0 .1.2.2.5.2.8 0 1.4-.6 1-1-.6-.5.5-1.5 1.6-1.3.6 0 1.2 0 1.5-.3.3-.2.8-.3 1.2-.3zm-130 1.1l.6.6.7.7h-.7c-.4 0-.7-.2-.8-.6-.1-.5 0-.7.1-.7zm1.9 1c.5 0 2.1.8 2.1 1 0 .4-.7.4-1.7 0-.7-.3-1-1-.4-1zm117.2 0l.6.3c.3.3.5.3 1 0 .8-.5.9-.1 0 .6-.5.5-1 .7-1.4.6-.4 0-.6 0-.5.3.1.3-.1.4-1 .4h-1l.9-1.1c.6-.7 1-1 1.4-1zM58 172.3l1.2.5 1.3.7.8.2c.3 0 .7.2.7.4.2.3.1.4-.3.1-.7-.3-1-.3-.6.2.8.9-.4.3-1.7-.9l-1.4-1.2zm-1.4 0a31.7 31.7 0 0 1 3.5 3.5l-.8-.1c-.3-.1-.7-.3-.8-.5 0-.3-.3-.4-.5-.4a.4.4 0 0 1-.4-.4c0-.2-.2-.6-.5-.8-.4-.4-.8-1.2-.5-1.2zm88 .5s.3 0 .3.4l-.4.2c-.3 0-.4-.1-.3-.4l.3-.2zm18 .4h-.3c-.2.1-.1.2.2.2.3 0 .4 0 .3-.1l-.2-.1zm-108.6 0l-.6.3c-.6.6-.2 1.7.8 2.3 1.4.9 2 .1 1.1-1.5-.3-.7-.8-1-1.3-1zm12.2.3c-.3 0-.1.4.5 1.4.7 1 1 1.4 1.2 1.1.2-.2.2 0 .1.3-.4 1.4 2.3 5.2 4.6 6.5.7.5 1.9 1.3 2.5 2 1 1 1.7 1.3 5 2.8.7.2 1.4.6 1.5.8.5.6 1 .4 1-.4 0-.4 0-.8-.2-1l-.7-1.7c-.8-2.6-1.1-3.1-2.6-4.5l-2.7-2.8c-1.4-1.5-3-2.3-6.1-3a18 18 0 0 1-4.1-1.5zm91.5.2c-1.2 0-1.5.2-1 .6.2.3.2.2 1.4-.2l1-.4h-1.4zm-19.9.3c.4 0 .6.2.5.5-.4 1.1-1 2.4-1.2 2.5l-1.2.3c-1.3.3-1.4-.5 0-1 .5-.1.9-.4.9-.5 0-.3-.4-.3-1.2 0-.6.3-.6.2-.4-.3.3-.8 1.8-1.5 2.6-1.5zm-4 .3h.2v.5c-.3.2-.4.2-.5 0-.2-.2 0-.5.3-.5zm-88.1.6c-.4 0-.7.1-1 .3-.7.6-.5 1.2.4 1.7a3 3 0 0 0 2.8-.2l.6-.5-.7-.5c-.8-.6-1.5-.8-2.1-.8zm104 .2c-.5 0-.8 0-1 .3-.2.2-.6.5-1 .5s-.3.2.6.8c.6.5 1.2.7 1.5.6l1.2-.3c1.5-.2 1.6-1 .2-1.6l-1.6-.3zm-88 0c.2 0 .5.2.8.5l.7.6v-.6c.2-.7 1 0 1.3 1.1 0 .5.4.9.8 1 .4.2.7.5.7.7 0 .6-.6.5-1.4-.4a43.7 43.7 0 0 0-2.9-2.8zm63.3.3v.1c0 .2-.5.4-1.3.4-1.3 0-2.2.5-2.2 1.2 0 .5.3.4.7-.2.2-.3.6-.5 1.2-.5 1 0 2-.6 1.8-1h-.2zm-55.8 0c.5 0 2 .5 2.3.7.3.4-.9.3-1.8 0l-.8-.5.3-.1zm60.3.5c.2 0 .3.3.3.7 0 .5-.1.6-.4.5-.4-.2-.5 0-.3 1.3 0 1.5 0 1.6-1 2.6-.5.6-1 1-1.2 1-.6 0-.3-.7.5-1.4.9-.9 1-1.8.4-2.3-.8-.6 0-2 1-2 .3 0 .5 0 .5-.2 0-.1 0-.2.2-.2zm-70.2.2c.2 0 .5.2.7.5.6.5.6.6.2.6-.6 0-1.4-.8-1-1zm13.1.3c.7 0 2 .5 2 .8 0 .1.2.3.6.4.4 0 .7.3.7.7 0 .6-.8 1-1 .4l-.2-.8c0-.1-.7-.5-1.3-.7-1.3-.3-1.7-.8-.8-.8zm62 0h.1c.1.1-.1.5-.5.9-.7.7-1.2 1-1.2.5 0-.3 1.4-1.4 1.7-1.4zm-65.5.3c.6 0 2 1.8 1.5 2-.7.2-1 .1-1-.4 0-.3-.1-.6-.3-.7-.4-.2-.6-1-.2-1zm-6.8.8c.2 0 .5.1.7.4.4.5.2.5-.4 0l-.3-.4zm61.3 0c-.2 0-.4.2-.5.5 0 .3-.5.6-1 .8l-.8.8c0 .4-.4.6-1 .6-.7 0-2 1.3-1.7 1.7.3.3.6.2.6-.3 0-.8.8-1.2 2-1.1.8.1 1 0 1-.4.2-.2.4-.5.6-.5.3 0 1-1.1 1-1.8 0-.2-.1-.3-.2-.3zm-47 1.3c.2 0 .4.2.4.4s.1.4.4.5c.2.1.4.3.4.5 0 .4-.5.3-1.1-.4-.7-.7-.7-1-.1-1zm-14.3 0c.2 0 .6.4 1 .8.6.6.7.8.4.8-.5 0-1.7-1.2-1.5-1.5h.1zm4.4.3c.2 0 .3.2.3.4s.2.5.4.6c.3.1.4.4.4.7-.1.3-.3.2-.7-.5-.7-1-.8-1.2-.4-1.2zm40.3 0c.8 0 1.5.2 1.5.6 0 .2.1.5.3.7.4.4 1 2.1 1 2.9 0 .3.2.8.4 1.1.7 1 .7 4.2 0 4.8-1 .7-1 .5-1-1.6 0-1.3-.2-2.2-.4-2.4-.2-.1-.3-.5-.3-.8 0-.3-.1-.5-.2-.5-.4 0-1.2-1.6-1.2-2.2 0-.4-.2-.8-.4-1-.7-.6-.5-1.6.3-1.6zM45 179c.4 0 .9.2 1.2.4.3.3.4.4.1.4-1.3-.1-2.5-.8-1.3-.8zm104 0c.4 0 1 .2 1.4.7l1.2.6c.8 0 .5.4-.6 1-1.3.6-2.3.7-2.5.4-.1-.2 0-.4.4-.5.3 0 .5-.2.4-.4h-.6c-.4.1-.4 0-.1-.2.5-.5.4-.8-.3-.8-.4 0-.5 0-.2-.4.2-.3.5-.4.9-.4zm6.2.3c.3 0 .5.1.9.5.3.3.8.5 1.4.5 1.3 0 .8.4-1.3 1-3.8.8-6 .7-3.6-.2l1.7-1.1c.4-.5.7-.7 1-.7zm-22.7.1c-.4 0-1.4.3-1.4.5s1 .2 1.4 0c.2-.2.2-.4 0-.4zm-90.1.2h.2l2 .6c2 .5 3.9 1.4 4 1.9.3.6-.1.8-.5.3-.2-.2-.6-.5-.8-.5-.3 0-.7 0-1-.2-.3-.2-.5-.2-.6 0-.1.1.1.4.5.5.4.2.7.5.7.7 0 .2.1.4.3.4.1 0 .2-.2.1-.4v-.4c.5 0 .7.8.3 1.2-.5.7-1.2.2-3.8-2.4-1.3-1.2-1.7-1.7-1.4-1.7zm60.6.2c1 0 1.9 2.1 1.3 2.8-.2.2-.5 1.2-.7 2.4a8.2 8.2 0 0 1-.8 2.2l-.2.7c0 .2-.2.5-.4.6-1.2.5-1.7-.9-.9-2.3.2-.3.3-1.5.4-2.7 0-2.4.5-3.7 1.3-3.7zm-55.2 0c.8 0 2.6.8 3.2 1.4.7.7.5.8-1 .1-2-.8-3-1.5-2.2-1.5zm27.5 0l.5.4c.6.6.4.7-.2.2-.3-.2-.5-.4-.4-.5h.1zm50.6.2c.2 0 .4.2.1.5-.2.2-.6.4-1 .4-.7 0-.7 0-.2-.4a2 2 0 0 1 1-.5zm-52.6.1c.1 0 .2 0 .3.2l.2.4c-.2.2-.5-.1-.5-.5zm71.1.3l.8.2.9.4-.8.3c-2.2.8-3 .6-1.6-.5l.7-.4zm-72.6.2c.4 0 1.2.3 1.2.5l-.4.4c-.4.2-1.5-.5-1.2-.8h.4zm52.2.4h.1c.2 0 .3.2.3.3l-.3.1c-.1 0-.2-.1-.2-.3 0-.1 0-.2.1-.1zm-49.7 0l.3.1c.2.1.3.4.2.6 0 .2-.2.2-.5-.1-.3-.4-.3-.7 0-.6zm-8.8 0l.8.5c.7.8.4 1-.5.2-.4-.3-.5-.6-.4-.7zm11.5.1c.2 0 .6.2.7.4 0 .3 0 .4-.2.4-.4 0-.7-.2-.7-.5 0-.2 0-.3.2-.3zm70.4 0c.1 0 .2.2.1.3 0 .2-.3.4-.4.5-.3 0-.4 0-.3-.2 0-.2.3-.4.5-.5h.1zm-26.4.4v.6c.2 0 .2-.3.1-.5v-.1zm-42.3 0l.8.4c.3.3.5.6.3.6-.3.2-1.3-.7-1.1-1zm79.5.2c.3 0-1.2 2.3-1.5 2.3-.2 0-.5 0-.7.2-.1 0-.5 0-.8-.4-.2-.3-.6-.5-.9-.4-.2 0-.7 0-1-.2l-.7-.4 1-.2a75 75 0 0 0 4.6-1zm-35 .2l.1.3c0 .2 0 .3-.2.3s-.3-.1-.2-.3l.3-.3zm-49 .3c.2 0 .4.1.4.3 0 .1-.1.3-.3.3l-.4-.3c0-.2 0-.3.3-.3zm-22.2 0c.3 0 .5.1.5.3 0 .3 0 .3-.5 0-.4-.2-.4-.3 0-.3zm23.8.2c.2 0 .3.1.5.3.4.5.4.6.2.6-.7 0-1.3-.5-1-.8l.3-.1zm67.8.4c.9 0 1.5 0 1.5.2 0 .3 3.1 2 3.7 2 .6 0-.3-1.4-1-1.5-1.6-.2-.7-.7 1.4-.7 1.2 0 2.1 0 2.1.2l1.8 1c1 .4 1.7.8 1.6 1-.2.3-1.4.2-2.4-.3-1-.4-2-.3-1.6.2 0 .2 0 .5-.2.7-.4.5-1.6.5-2.6-.1-.7-.5-1-.5-1.6-.3-.6.2-.8.2-1.8-.8a7.3 7.3 0 0 0-1.8-1.3c-.5-.2-.4-.3.9-.3zm-19.6.2v.3l-.6.3c-.4 0-.4 0 0-.3l.6-.3zm-73.3 0l1.2.6c1 .4 1.1.9.5 1.1-.5.2-.6.2-2.8-.2-1.6-.2-1.7-.3-1-.6.4-.3.8-.3 1.5 0 1 .2 1.3.1.8-.5l-.2-.4zm75 .3c.2 0 .3.3.3 1.1l-.1 1.1-3 1c-4 1.4-4.7 1.5-4.7 1s.8-1 2.6-1.5c.8-.3 1.3-.6 1.3-.8 0-.6.7-1 1.5-1.1.4 0 1-.2 1.2-.4l.8-.4zm-71.3 0l.2.1s0 .2-.4.1c-.3 0-.3 0-.1-.1h.3zm67.5.3c.4 0 .3.1-.2.5-.5.3-.8.8-.8 1 0 .2-.1.3-.3.3-.3 0-.3-.2.3-1 .3-.5.8-.8 1-.8zm27.8.2c-.1 0-.2.2-.1.3l.3.3.1-.3c0-.1-.1-.3-.3-.3zm-63.4.3c.7 0 1 .1 3.9 1.4 1.5.6 4 2.8 4 3.4 0 .4-.7.4-.9 0-.1-.2-3.2-1.8-5-2.5-2-.7-3.3-2.3-2-2.3zm-10 0c.3 0 .7.3.7.5s-.2.3-.4.3c-.4 0-.8-.5-.6-.7h.3zm-22.7.2h.1c.5.4 3 1 3.9.9 1-.1 1.3 0 .7.2-.5.3-3.7.3-4.5.1-.2 0-.4-.4-.4-.7 0-.4 0-.5.2-.5zm25 .9l.8.5c.4.3.8.6 1 .6.2 0 .4 0 .4.2 0 .4-.5.3-1.5-.2-.5-.3-1-.6-1-.8 0-.2.1-.3.3-.3zm-16.3.6c-1.4 0-2 .6-1 1.5.8.7 1.4.7 2.4 0 1-.8.9-1.2-.7-1.5h-.7zm43.9.5c.4 0 .8.2 1 .6.8 1.4.4 2.4-1.4 2.9-2 .5-2.9.2-2-.7l.4-.6c0-1.3 1-2.2 2-2.2zm24.4 3.5c.2 0 .3.1.3.3 0 .8-.6 1.2-.6.4 0-.4.2-.7.3-.7zm-66.8 0c.3 0 .7.2 1.2.6.5.4.7.7.4.7l-.7-.4c-.2-.2-.6-.4-.9-.4-.3 0-.5-.1-.4-.3l.4-.2zm10.9 0a47.7 47.7 0 0 0 6.3 1.6c1.7.3 2 .7 1.2 1.3-.5.5-3.3.5-4 0-1-.4-3-.3-4.6.3-1.5.5-3.8.7-3.8.3 0-.3 1.4-1.4 1.8-1.4l1.4-1c.7-.8 1-1 1.7-1zM59 190c.8.1.8.2.6.5-.2.4-.4.4-1 .2-.3-.1-.7-.1-.8 0h-1.7c-2.2-.1-1-.6 1.9-.6h1zm9.8.2c.2 0 .5 0 .8.2.7.2.8.3.6.5-.5.3-3.8.4-3.8 0l.9-.1c.4 0 1-.2 1.1-.4l.4-.2zm63 .3c.2 0 .3.1.2.3l-.3.2s-.2 0-.2-.2c-.1-.2 0-.3.2-.3zm-70 0l.4.2c.4.4 0 .5-1.2.3l-1-.1 1-.2.7-.1zm81 0c1.7 0 3 .7 3 1.6 0 .7-.6 1.3-1.2 1.3l-1.4.7c-1 .8-1 .8-2 .4-.3-.2-1-.2-1.3-.1-.5 0-.9 0-1.2-.4-.7-.8-2-1.2-2.4-.8-.3.3-.4.2-.4 0 0-1.5.8-2 1.7-1.2.3.2.4.3.4.1 0-.5.4-.3 1.5.7 1 1 2 1.4 2.3 1l-.6-.8c-1-.8-.7-.9 1.2-.6 1.5.2 1.8.1 1.8-.3 0-.3-2-.8-3.2-.8-1.3 0-.7-.5 1-.7h.7zm-9 .5l.7.2c.4 0 .8.2.8.3v.3c0 .2-.4.1-.8-.2l-.6-.6zm-36 .3c.6 0 .7.2 1 2 0 .6-1.5 1-1.7.5-.4-.7.1-2.5.7-2.5zm33.2.4h.8c1.5 0 3.8 1.6 3.8 2.4 0 .9-1 .4-1.9-.8-.8-1.2-2-1.6-2.2-.9 0 .3-.2.3-.5 0-.5-.5-.6-.7 0-.7zm-61.3.1c.7 0 .3.6-.8 1.3-1.3.8-1.4.8-1.4 0 0-.2-.2-.5-.3-.5-.5 0 2-.8 2.5-.8zm-13.4 0c.7 0 1 .2 1 .7.2.6.2.7-.2.5-.2 0-.3-.2-.2-.4 0-.1 0-.2-.4-.2a2 2 0 0 1-.8-.3c-.3-.1-.1-.2.6-.2zm6.4.4h.2c.4.3.4.8-.1.6-.3 0-.5 0-.6.3-.1.2-.5.3-1.3.3-1 0-1 0-.2-.1.5-.1.9-.3.9-.4 0-.1.1-.3.4-.3.2 0 .4-.1.4-.3l.3-.1zm-4.5 0l.1.5c0 .8-.2 1-.4.3l.1-.7.2-.1zm2 0l.3.2c0 .1-.1.2-.3.2a.5.5 0 0 1-.3-.2c-.1-.1 0-.2.2-.2zm24.5.2c4.1.1 4.2.4 0 2-2.8 1-2.5 1-2.7.8-.5-.5 1.7-2.8 2.7-2.8zm15.7.2c.3 0 .8.4 1.5 1 1.4 1.4 1.6 1.9 2 4l.5 3.3a28 28 0 0 0 1.6 5.6c.6.7.4 1.6-.2 1.6-.4 0-.7 0-.9.5-.4 1.3-1.3 1.2-1.3-.1 0-.4-.1-.8-.3-.9 0 0-.3-.7-.4-1.5a3 3 0 0 0-.4-1.5 17 17 0 0 1-.3-4.1c0-4.2-.2-5.3-1.3-6.7-.6-.8-.7-1.1-.5-1.2zm-24.2.6c.4 0 .7 0 .8.2v.5c-.2.3-1.4-.2-1.4-.5l.6-.2zm-10.6.3c.7 0 1 0 1 .2-.3.2-1.8.3-2 0 0-.1.4-.2 1-.2zm58.8 0l.1.2c.2.2.4.3.5.2.1 0 .4 0 .5.3.3.4.5.4 1.1.1 2.2-.8 3.9-.5 3.4.7 0 .3-.1.3-.4 0-.3-.7-1.2-.6-2.2.2-1.1.9-1.5.8-3.3-.1-.8-.5-1.7-.8-2-.8l-.6-.3c-.2-.4 1.3-.3 2.5.1.5.2.6.1.4-.3v-.3zm-45.4.3h.4l-.5.1h-.3l.4-.1zm-9 .7l.2.4c0 .5-.3.6-.6.3-.2-.2 0-.7.3-.7zm10.6 0l.1.1c.3 0 0 .3-.4.5-1.3.5-2.3.6-2.3.3 0-.2.4-.3.9-.3s1-.2 1.2-.3c.1-.2.3-.2.5-.2zm-11.7.3c.1 0 .2 0 0 .3 0 0 0 .3.2.4.5.3 0 .6-.7.4-.3-.2-.7-.2-.8 0l-1 .5c-.4.1-.7.2-.6 0 .1-.1.3-.3.5-.3l1-.6c.5-.4 1.1-.7 1.4-.7zm60.2.3h.3c0 .2-.1.2-.4.2-.3 0-.4 0-.2-.1l.3-.1zm-53 .2h.6c.4.2.5.3.2.4-.8.3-1.6.4-1.6.2 0-.3.4-.6.9-.6zm-2 .3c.6 0 .7 0 .4.4-.2.2-.2.4-.1.4l-.7.6c-1 .5-1.2.6-1.4.3-.3-.3-.3-.7 0-.5.1 0 .5-.2.7-.5.3-.5.7-.7 1.1-.7zm49.4.2c.3 0 1 .3 2.2 1l1 .2c.6 0 2 1.7 2 2.4s-.4.6-1.2-.4l-.8-.8-.6.7c-.6.8-2 1-2 .4 0-.2 0-.5.3-.5.3-.1-.5-2.1-1-2.1l-.2-.5c0-.3.1-.4.3-.4zm-1.3.3c.2 0 0 .3-.2.6-.6.6-1 .7-1.5.1-.4-.6-.1-.8.6-.3.5.2.6.3.7 0 0-.2.3-.4.4-.4zm8.5.2a10 10 0 0 1 3.3 1.4c0 .2-.1.3-.3.3-1.3-.2-1.8-.3-2.1-.7a1 1 0 0 0-.7-.3c-.4 0-.5-.4-.2-.6zm-59.4.1c.1 0 .2.1.2.3 0 .1 0 .3-.2.3a.3.3 0 0 1-.3-.3c0-.2.1-.3.3-.3zm58.1 0c.5 0 .8.1.7.3 0 .1-.5.3-.8.3-.4 0-.7-.2-.7-.3 0-.2.4-.3.8-.3zm-61.2.6c1.4 0 2.1.3 1.3.6-.6.2-2.4.2-2.6 0-.5-.5-.1-.6 1.3-.6zm54.7 0l.3.5c0 .1 0 .3-.2.3s-.3-.2-.3-.5c0-.1 0-.2.2-.2zm-51.6.2c.3 0 .5.1.5.3 0 .1-.3.3-.7.3-.4 0-.6-.2-.5-.3 0-.2.4-.3.7-.3zm54.9.3c-.3 0-.5.2-.5.4s.1.4.3.4c.2 0 .5-.2.6-.4 0-.3 0-.4-.4-.4zm3.2.5h.8c3.9.8 4.6.8 4.2.3l.1-.3c.6 0 .6.6 0 1.1-.6.6-2.5.6-4 0-.2 0-.2.1-.1.6.2.7.1.8-.7.8-.4 0-.8-.2-.8-.3 0-.1.2-.2.4-.1.2 0 .3-.1.3-.8 0-.4-.2-.9-.4-1-.6-.2-.4-.3.2-.3zm-60.2 6.2c.1 0 .2 0 .2.3s-1 1-1.3 1c-.2 0-.3.3-.3.5s-.2.4-.3.4c-.4 0-.3-.2.4-1.3.5-.5 1-.9 1.3-.9zm54.5.5c.4-.1 1.7.9 2.3 1.9.3.4 0 .4-.3 0-.2-.3-.6-.5-.8-.5-.4 0-1.4-.9-1.4-1.2 0-.1 0-.2.2-.2z" style="fill:#ffffff;stroke-width:1.01771462"/>
  </g>
</svg>
